<svg width="38" height="24" viewBox="0 0 38 24" fill="none" xmlns="http://www.w3.org/2000/svg">
<g clip-path="url(#clip0_269_455)">
<path d="M35 0H3C1.3 0 0 1.3 0 3V21C0 22.7 1.4 24 3 24H35C36.7 24 38 22.7 38 21V3C38 1.3 36.6 0 35 0Z" fill="#B2FCE4"/>
<path d="M27.3996 6.79928L24.6996 5.19927L21.9996 3.59927C20.1996 2.59927 17.8996 3.89928 17.8996 5.99927V6.39928C17.8996 6.59928 17.9996 6.79928 18.1996 6.89928L19.4996 7.59928C19.8996 7.79927 20.2996 7.49927 20.2996 7.09927V6.29928C20.2996 5.89928 20.6996 5.59928 21.0996 5.79928L23.5996 7.19927L25.9996 8.69928C26.3996 8.89927 26.3996 9.39928 25.9996 9.59928L23.4996 10.9993L20.9996 12.5993C20.5996 12.7993 20.1996 12.4993 20.1996 12.0993V11.6993C20.1996 9.59928 17.8996 8.29928 16.0996 9.29928L13.3996 10.8993L10.6996 12.4993C8.89961 13.4993 8.89961 16.1993 10.6996 17.1993L13.3996 18.7993L16.0996 20.3993C17.8996 21.3993 20.1996 20.0993 20.1996 17.9993V17.5993C20.1996 17.3993 20.0996 17.1993 19.8996 17.0993L18.5996 16.3993C18.1996 16.1993 17.7996 16.4993 17.7996 16.8993V17.6993C17.7996 18.0993 17.3996 18.3993 16.9996 18.1993L14.4996 16.7993L11.9996 15.2993C11.5996 15.0993 11.5996 14.5993 11.9996 14.3993L14.4996 12.9993L16.9996 11.5993C17.3996 11.3993 17.7996 11.6993 17.7996 12.0993V12.4993C17.7996 14.5993 20.0996 15.8993 21.8996 14.8993L24.5996 13.2993L27.2996 11.6993C29.1996 10.4993 29.1996 7.89928 27.3996 6.79928Z" fill="black"/>
</g>
<defs>
<clipPath id="clip0_269_455">
<rect width="38" height="24" fill="white"/>
</clipPath>
</defs>
</svg>
