<svg width="37" height="12" viewBox="0 0 37 12" fill="none" xmlns="http://www.w3.org/2000/svg">
<path d="M0.800781 5.09062C0.358953 5.09062 0.000781238 5.4488 0.000781238 5.89062C0.000781238 6.33245 0.358953 6.69063 0.800781 6.69063V5.89062V5.09062ZM36.3665 6.45631C36.6789 6.14389 36.6789 5.63736 36.3665 5.32494L31.2753 0.233771C30.9629 -0.0786486 30.4563 -0.0786486 30.1439 0.233771C29.8315 0.54619 29.8315 1.05272 30.1439 1.36514L34.6694 5.89062L30.1439 10.4161C29.8315 10.7285 29.8315 11.2351 30.1439 11.5475C30.4563 11.8599 30.9629 11.8599 31.2753 11.5475L36.3665 6.45631ZM0.800781 5.89062V6.69063H35.8008V5.89062V5.09062H0.800781V5.89062Z" fill="#373F48" fill-opacity="0.15"/>
</svg>
