<svg width="18" height="18" viewBox="0 0 18 18" fill="none" xmlns="http://www.w3.org/2000/svg">
<path d="M9.4724 10.0284V0.947349C9.4724 0.424147 9.04825 0 8.52504 0C8.00182 0 7.57767 0.424147 7.57767 0.947349V10.0284L4.45808 6.90892C4.08811 6.53894 3.48828 6.53894 3.11831 6.90892C2.74832 7.27888 2.74832 7.8787 3.11831 8.24866L8.52504 13.6553L13.9319 8.24866C14.3017 7.8787 14.3017 7.27888 13.9319 6.90892C13.5618 6.53896 12.9619 6.53896 12.5919 6.90892L9.4724 10.0284Z" fill="#00ADB5"/>
<path d="M0.947368 12.3164C1.47058 12.3164 1.89474 12.7406 1.89474 13.2638V14.7795C1.89474 15.512 2.48855 16.1058 3.22105 16.1058H13.8316C14.5641 16.1058 15.1579 15.512 15.1579 14.7795V13.2638C15.1579 12.7406 15.5821 12.3164 16.1053 12.3164C16.6284 12.3164 17.0526 12.7406 17.0526 13.2638V14.7795C17.0526 16.5584 15.6105 18.0005 13.8316 18.0005H3.22105C1.44212 18.0005 0 16.5584 0 14.7795V13.2638C0 12.7406 0.424156 12.3164 0.947368 12.3164Z" fill="#00ADB5"/>
</svg>
