<svg width="37" height="35" viewBox="0 0 37 35" fill="none" xmlns="http://www.w3.org/2000/svg">
<path d="M28.8277 16.6808H23.7657V14.7108C23.7623 13.7028 22.9541 12.8855 21.9553 12.8838H15.0441C14.0453 12.8855 13.2371 13.7028 13.2337 14.7108V16.6808H8.17173C6.79659 16.6825 5.68131 17.808 5.67962 19.1957V32.0072C5.69312 33.3864 6.80505 34.4983 8.17173 34.5H28.8273C30.2008 34.4983 31.3144 33.3762 31.3194 31.9885V19.1958C31.3177 17.8081 30.2028 16.6825 28.8277 16.6808ZM14.0776 14.7108C14.0776 14.452 14.1789 14.2034 14.3611 14.0195C14.5416 13.8373 14.788 13.7335 15.0444 13.7335H21.9555C22.4904 13.7335 22.9224 14.1711 22.9224 14.7108V16.6809H14.0774L14.0776 14.7108ZM8.17207 17.5339H28.8277C29.7371 17.5339 30.4745 18.278 30.4778 19.1958V22.1041L23.6492 25.7513C23.3472 25.9165 23.0097 26.0033 22.6672 26.005H21.4625V24.5492C21.4625 23.9856 21.0103 23.5275 20.4518 23.5275H16.5643C16.0058 23.5275 15.5537 23.9856 15.5537 24.5492V26.005H14.3321C13.9879 26.0033 13.6487 25.9165 13.3467 25.7513L6.52157 22.1024V19.1958C6.52494 18.278 7.26261 17.5339 8.17207 17.5339ZM16.379 26.4358V24.5611C16.3807 24.4692 16.455 24.3942 16.5477 24.3908H20.4353C20.5264 24.3943 20.6006 24.4692 20.604 24.5611V27.4694C20.604 27.5136 20.5854 27.5562 20.5534 27.5869C20.523 27.6192 20.4791 27.6362 20.4352 27.6345H16.5477C16.5039 27.6362 16.46 27.6192 16.4279 27.5869C16.3976 27.5562 16.379 27.5136 16.379 27.4694L16.379 26.4358ZM28.8277 33.6674H8.17207C7.26261 33.6674 6.52528 32.925 6.52191 32.0072V23.0661L12.954 26.5056C13.3775 26.7337 13.8516 26.8529 14.3325 26.8546H15.5372V27.4744V27.4727C15.5372 28.0363 15.9895 28.4926 16.5479 28.4926H20.4354C20.9939 28.4926 21.4461 28.0363 21.4461 27.4727V26.8546H22.6508C23.1317 26.8529 23.6041 26.7337 24.0293 26.5056L30.4614 23.0661V32.0072C30.458 32.9181 29.7308 33.6571 28.8281 33.6673L28.8277 33.6674ZM5.64433 4.26131C5.64433 4.61377 5.43511 4.9322 5.11114 5.06672C4.78887 5.20294 4.41765 5.12802 4.16963 4.87772C3.92329 4.62912 3.84904 4.25451 3.98234 3.92759C4.11733 3.60237 4.43118 3.38952 4.78045 3.38952C5.00992 3.38952 5.22928 3.48147 5.39126 3.64493C5.55324 3.80839 5.64433 4.02972 5.64433 4.26131ZM12.7157 4.26131C12.7157 4.61377 12.5048 4.9322 12.1825 5.06672C11.8602 5.20294 11.489 5.12802 11.241 4.87772C10.9947 4.62912 10.9204 4.25451 11.0537 3.92759C11.187 3.60237 11.5025 3.38952 11.8518 3.38952C12.0813 3.38952 12.3006 3.48147 12.4626 3.64493C12.6246 3.80839 12.7157 4.02972 12.7157 4.26131ZM9.17915 4.26131C9.17915 4.61377 8.96824 4.9322 8.64428 5.06672C8.32201 5.20294 7.95079 5.12802 7.70277 4.87772C7.45642 4.62912 7.38218 4.25451 7.51548 3.92759C7.65046 3.60237 7.96431 3.38952 8.31527 3.38952C8.54305 3.38952 8.7641 3.48147 8.92608 3.64493C9.08806 3.80839 9.17915 4.02972 9.17915 4.26131ZM33.5353 4.26131C33.5353 4.37709 33.4897 4.48777 33.4087 4.5695C33.3277 4.65123 33.2181 4.69721 33.1033 4.69721H20.383C20.1451 4.69721 19.951 4.5031 19.951 4.26131C19.951 4.02123 20.1451 3.82541 20.383 3.82541H33.112C33.3482 3.83052 33.5353 4.02463 33.5353 4.26131ZM34.1832 0.5H2.81665C1.5377 0.501703 0.503369 1.54716 0.5 2.83615V26.1531C0.503375 27.4421 1.53766 28.4859 2.81665 28.4893H4.41787C4.61528 28.4433 4.75532 28.2679 4.75532 28.0636C4.75532 27.861 4.61528 27.6839 4.41787 27.6396H2.81665C2.00507 27.6362 1.34704 26.9722 1.34704 26.1531V8.04118H35.653V26.1531C35.653 26.9721 34.9949 27.6362 34.1833 27.6396H32.5821C32.3847 27.6839 32.2447 27.861 32.2447 28.0636C32.2447 28.2679 32.3847 28.4433 32.5821 28.4893H34.185H34.1833C35.4623 28.4859 36.4966 27.4421 36.5 26.1531V2.81915C36.4882 1.537 35.4554 0.5017 34.1832 0.5ZM1.35538 7.20889V2.84992C1.35538 2.03091 2.0134 1.36517 2.82499 1.36342H34.1833C34.9949 1.36513 35.6529 2.03087 35.6529 2.84992V7.20889H1.35538Z" fill="#00ADB5"/>
<path d="M9.17747 4.26131H9.17915M9.17915 4.26131C9.17915 4.61377 8.96824 4.9322 8.64428 5.06672C8.32201 5.20294 7.95079 5.12802 7.70277 4.87772C7.45642 4.62912 7.38218 4.25451 7.51548 3.92759C7.65046 3.60237 7.96431 3.38952 8.31527 3.38952C8.54305 3.38952 8.7641 3.48147 8.92608 3.64493C9.08806 3.80839 9.17915 4.02972 9.17915 4.26131ZM28.8277 16.6808H23.7657V14.7108C23.7623 13.7028 22.9541 12.8855 21.9553 12.8838H15.0441C14.0453 12.8855 13.2371 13.7028 13.2337 14.7108V16.6808H8.17173C6.79659 16.6825 5.68131 17.808 5.67962 19.1957V32.0072C5.69312 33.3864 6.80505 34.4983 8.17173 34.5H28.8273C30.2008 34.4983 31.3144 33.3762 31.3194 31.9885V19.1958C31.3177 17.8081 30.2028 16.6825 28.8277 16.6808ZM14.0776 14.7108C14.0776 14.452 14.1789 14.2034 14.3611 14.0195C14.5416 13.8373 14.788 13.7335 15.0444 13.7335H21.9555C22.4904 13.7335 22.9224 14.1711 22.9224 14.7108V16.6809H14.0774L14.0776 14.7108ZM8.17207 17.5339H28.8277C29.7371 17.5339 30.4745 18.278 30.4778 19.1958V22.1041L23.6492 25.7513C23.3472 25.9165 23.0097 26.0033 22.6672 26.005H21.4625V24.5492C21.4625 23.9856 21.0103 23.5275 20.4518 23.5275H16.5643C16.0058 23.5275 15.5537 23.9856 15.5537 24.5492V26.005H14.3321C13.9879 26.0033 13.6487 25.9165 13.3467 25.7513L6.52157 22.1024V19.1958C6.52494 18.278 7.26261 17.5339 8.17207 17.5339ZM16.379 26.4358V24.5611C16.3807 24.4692 16.455 24.3942 16.5477 24.3908H20.4353C20.5264 24.3942 20.6006 24.4692 20.604 24.5611V27.4694C20.604 27.5136 20.5854 27.5562 20.5534 27.5869C20.523 27.6192 20.4791 27.6362 20.4352 27.6345H16.5477C16.5039 27.6362 16.46 27.6192 16.4279 27.5869C16.3976 27.5562 16.379 27.5136 16.379 27.4694L16.379 26.4358ZM28.8277 33.6674H8.17207C7.26261 33.6674 6.52528 32.925 6.52191 32.0072V23.0661L12.954 26.5056C13.3775 26.7337 13.8516 26.8529 14.3325 26.8546H15.5372V27.4744V27.4727C15.5372 28.0363 15.9895 28.4926 16.5479 28.4926H20.4354C20.9939 28.4926 21.4461 28.0363 21.4461 27.4727V26.8546H22.6508C23.1317 26.8529 23.6041 26.7337 24.0293 26.5056L30.4614 23.0661V32.0072C30.458 32.9181 29.7308 33.6571 28.8281 33.6673L28.8277 33.6674ZM5.64433 4.26131C5.64433 4.61377 5.43511 4.9322 5.11114 5.06672C4.78887 5.20294 4.41765 5.12802 4.16963 4.87772C3.92329 4.62912 3.84904 4.25451 3.98234 3.92759C4.11733 3.60237 4.43118 3.38952 4.78045 3.38952C5.00992 3.38952 5.22928 3.48147 5.39126 3.64493C5.55324 3.80839 5.64433 4.02972 5.64433 4.26131ZM12.7157 4.26131C12.7157 4.61377 12.5048 4.9322 12.1825 5.06672C11.8602 5.20294 11.489 5.12802 11.241 4.87772C10.9947 4.62912 10.9204 4.25451 11.0537 3.92759C11.187 3.60237 11.5025 3.38952 11.8518 3.38952C12.0813 3.38952 12.3006 3.48147 12.4626 3.64493C12.6246 3.80839 12.7157 4.02972 12.7157 4.26131ZM33.5353 4.26131C33.5353 4.37709 33.4897 4.48777 33.4087 4.5695C33.3277 4.65123 33.2181 4.69721 33.1033 4.69721H20.383C20.1451 4.69721 19.951 4.5031 19.951 4.26131C19.951 4.02123 20.1451 3.82541 20.383 3.82541H33.112C33.3482 3.83052 33.5353 4.02463 33.5353 4.26131ZM34.1832 0.5H2.81665C1.5377 0.501703 0.503369 1.54716 0.5 2.83615V26.1531C0.503375 27.4421 1.53766 28.4859 2.81665 28.4893H4.41787C4.61528 28.4433 4.75532 28.2679 4.75532 28.0636C4.75532 27.861 4.61528 27.6839 4.41787 27.6396H2.81665C2.00507 27.6362 1.34704 26.9722 1.34704 26.1531V8.04118H35.653V26.1531C35.653 26.9721 34.9949 27.6362 34.1834 27.6396H32.5821C32.3847 27.6839 32.2447 27.861 32.2447 28.0636C32.2447 28.2679 32.3847 28.4433 32.5821 28.4893H34.185H34.1833C35.4623 28.4859 36.4966 27.4421 36.5 26.1531V2.81915C36.4882 1.537 35.4554 0.5017 34.1832 0.5ZM1.35538 7.20889V2.84992C1.35538 2.03091 2.0134 1.36517 2.82499 1.36342H34.1833C34.9949 1.36513 35.6529 2.03087 35.6529 2.84992V7.20889H1.35538Z" stroke="#00ADB5"/>
</svg>
