<svg width="15" height="15" viewBox="0 0 15 15" fill="none" xmlns="http://www.w3.org/2000/svg">
<path d="M7.32227 14.6445C11.3595 14.6445 14.6445 11.3597 14.6445 7.32227C14.6445 3.28484 11.3597 0 7.32227 0C3.28484 0 0 3.28484 0 7.32227C0 11.3597 3.28484 14.6445 7.32227 14.6445ZM7.32227 0.915961C10.8548 0.915961 13.729 3.79 13.729 7.32272C13.729 10.8554 10.855 13.7295 7.32227 13.7295C3.78955 13.7295 0.91551 10.8554 0.91551 7.32272C0.91551 3.79 3.78955 0.915961 7.32227 0.915961Z" fill="#848484"/>
<path d="M5.49315 5.99666C5.74599 5.99666 5.95059 5.79205 5.95059 5.53922C5.95059 4.76868 6.55345 4.16528 7.3224 4.16528C8.07933 4.16528 8.69531 4.81021 8.69531 5.603C8.69531 6.11612 8.53629 6.43592 8.10868 6.7824C6.76211 7.87309 6.86144 9.18416 6.86655 9.23944L7.77844 9.15887L7.77897 9.16399C7.7765 9.12759 7.73233 8.26535 8.68521 7.49373C9.32552 6.97496 9.61071 6.39191 9.61071 5.60314C9.61071 4.30569 8.58434 3.25 7.32239 3.25C6.03964 3.25 5.03516 4.25552 5.03516 5.53886C5.03569 5.79206 5.24084 5.99666 5.49315 5.99666Z" fill="#848484"/>
<path d="M7.74 10.8056C7.72833 10.7782 7.7142 10.7514 7.69794 10.7266C7.68116 10.7019 7.6619 10.6786 7.6407 10.6572C7.61985 10.636 7.5967 10.6167 7.57126 10.6005C7.54652 10.5837 7.52002 10.5696 7.49227 10.5579C7.46436 10.5468 7.43609 10.5381 7.40658 10.5321C7.25816 10.5022 7.09949 10.5508 6.99366 10.6572C6.97246 10.6784 6.9532 10.7017 6.93641 10.7266C6.92015 10.7514 6.90602 10.7782 6.89436 10.8056C6.88323 10.8335 6.87457 10.8618 6.86856 10.8913C6.86255 10.9207 6.85938 10.951 6.85938 10.9809C6.85938 11.0102 6.86238 11.0406 6.86856 11.0701C6.87457 11.0995 6.88323 11.1284 6.89436 11.1558C6.90602 11.1837 6.92015 11.2101 6.93641 11.2348C6.9532 11.2601 6.97246 11.2834 6.99366 11.3043C7.01451 11.3255 7.03818 11.3447 7.0631 11.3615C7.08784 11.3778 7.11434 11.3919 7.14208 11.4035C7.17 11.4147 7.19827 11.4239 7.22777 11.4293C7.2571 11.4354 7.28749 11.4385 7.31736 11.4385C7.4375 11.4385 7.55553 11.3899 7.64052 11.3042C7.66172 11.2834 7.68098 11.2603 7.69777 11.2348C7.71402 11.2101 7.72816 11.1836 7.73982 11.1558C7.75095 11.1284 7.76014 11.0996 7.76562 11.0701C7.77162 11.0408 7.7748 11.0104 7.7748 10.9809C7.7748 10.951 7.7718 10.9207 7.76562 10.8913C7.76032 10.8618 7.75113 10.8335 7.74 10.8056Z" fill="#848484"/>
</svg>
