<svg width="44" height="34" viewBox="0 0 44 34" fill="none" xmlns="http://www.w3.org/2000/svg">
<path d="M39.704 31.8123C39.9428 32.0553 40.0887 32.388 40.0887 32.7206C40.0887 33.0533 39.9428 33.3859 39.704 33.629C39.4521 33.8593 39.1072 34 38.7624 34C38.4176 34 38.0728 33.8593 37.8208 33.629C37.5821 33.3859 37.4362 33.0533 37.4362 32.7206C37.4362 32.388 37.5821 32.0553 37.8208 31.8123C38.3247 31.3389 39.2133 31.3389 39.704 31.8123ZM21.04 0.172045C21.4633 -0.0573484 21.9811 -0.0573484 22.4045 0.172045L42.7402 11.1907C43.6792 11.6995 43.6792 12.9962 42.7402 13.505L39.8998 15.0417L39.9078 15.1328V28.4521C39.9078 29.1862 39.287 29.7813 38.5213 29.7813C37.8193 29.7813 37.2392 29.2813 37.1474 28.6325L37.1348 28.4521L37.1312 16.5425L34.4672 17.986L34.4676 27.5773C34.4676 28.0337 34.1974 28.4506 33.7706 28.6528C26.1857 32.2449 17.2588 32.2449 9.67389 28.6528C9.30037 28.4759 9.04679 28.1346 8.98924 27.7463L8.97679 27.5773L8.97523 17.986L0.704275 13.505C-0.172156 13.0301 -0.230585 11.8689 0.528989 11.3025L0.704275 11.1907L21.04 0.172045ZM31.9633 19.3427L22.4045 24.5237C21.9811 24.7531 21.4633 24.7531 21.04 24.5237L11.4792 19.3427L11.4786 26.8157L12.0872 27.0751C18.2379 29.5719 25.2066 29.5719 31.3572 27.0751L31.964 26.8157L31.9633 19.3427ZM21.7222 2.85508L4.20394 12.3472L21.7222 21.8375L34.3547 14.9923L23.8677 11.0422C23.2144 10.7962 22.8652 10.1274 23.0272 9.49139L23.0842 9.31908C23.3409 8.69277 24.0385 8.358 24.7019 8.51331L24.8817 8.56796L37.4649 13.3058L39.2387 12.3472L21.7222 2.85508Z" fill="#00ADB5"/>
</svg>
