<svg width="85" height="85" viewBox="0 0 85 85" fill="none" xmlns="http://www.w3.org/2000/svg">
<circle cx="42.5" cy="42.5" r="42.5" fill="#00ADB5" fill-opacity="0.04"/>
<path d="M54.2155 32.5878L48.7528 27.1288C48.6704 27.0464 48.5583 27 48.4423 27H32.974C31.6947 27 30.6523 28.0423 30.6523 29.3217V55.6783C30.6523 56.9577 31.6947 58 32.974 58H52.0216C53.301 58 54.3433 56.9577 54.3433 55.6783L54.3446 32.9007C54.3446 32.7821 54.2982 32.67 54.2158 32.5876L54.2155 32.5878ZM48.8815 28.4986L52.8434 32.4605H50.3233C49.5283 32.4605 48.879 31.8138 48.879 31.0162V28.4987L48.8815 28.4986ZM52.0213 57.1202H32.971C32.1761 57.1202 31.5268 56.4734 31.5268 55.6759L31.5255 29.3232C31.5255 28.5283 32.1722 27.8789 32.9698 27.8789H48V31.0187C48 32.2981 49.0424 33.3404 50.3217 33.3404H53.4615V55.6797C53.4628 56.4747 52.8162 57.1202 52.0213 57.1202ZM50.425 50.2802C50.425 50.5237 50.2266 50.7182 49.9869 50.7182L35.0055 50.7195C34.762 50.7195 34.5674 50.5211 34.5674 50.2815C34.5674 50.0405 34.7658 49.8434 35.0055 49.8434H49.9869C50.2304 49.8421 50.425 50.0392 50.425 50.2802ZM34.5675 34.7189C34.5675 34.4754 34.7659 34.2808 35.0055 34.2808L42.4963 34.2795C42.7398 34.2795 42.9343 34.4779 42.9343 34.7176C42.9343 34.9611 42.7359 35.1556 42.4963 35.1556L35.0055 35.1569C34.762 35.1569 34.5675 34.9598 34.5675 34.7189ZM50.425 42.4995C50.425 42.743 50.2266 42.9376 49.9869 42.9376H35.0055C34.762 42.9376 34.5674 42.7391 34.5674 42.4995C34.5674 42.2586 34.7658 42.0615 35.0055 42.0615H49.9869C50.2304 42.0615 50.425 42.256 50.425 42.4995ZM50.425 38.6072C50.425 38.8507 50.2266 39.0453 49.9869 39.0453L35.0055 39.0465C34.762 39.0465 34.5674 38.8481 34.5674 38.6085C34.5674 38.3676 34.7658 38.1705 35.0055 38.1705H49.9869C50.2304 38.1692 50.425 38.3663 50.425 38.6072ZM50.425 46.3918C50.425 46.6353 50.2266 46.8299 49.9869 46.8299H35.0055C34.762 46.8299 34.5674 46.6315 34.5674 46.3918C34.5674 46.1483 34.7658 45.9538 35.0055 45.9538H49.9869C50.2304 45.9499 50.425 46.147 50.425 46.3918Z" fill="#00ADB5" stroke="#00ADB5" stroke-width="0.6"/>
</svg>
