<svg width="25" height="32" viewBox="0 0 25 32" fill="none" xmlns="http://www.w3.org/2000/svg">
<path d="M23.8629 5.88788L18.4003 0.42889C18.3179 0.346433 18.2058 0.300049 18.0898 0.300049H2.6215C1.34213 0.300049 0.299805 1.34237 0.299805 2.62175V28.9784C0.299805 30.2577 1.34213 31.3 2.6215 31.3H21.6691C22.9485 31.3 23.9908 30.2577 23.9908 28.9784L23.9921 6.20072C23.9921 6.08218 23.9457 5.97009 23.8633 5.88764L23.8629 5.88788ZM18.5289 1.79867L22.4908 5.76057H19.9708C19.1758 5.76057 18.5265 5.11381 18.5265 4.31628V1.79877L18.5289 1.79867ZM21.6687 30.4202H2.6185C1.82355 30.4202 1.17422 29.7734 1.17422 28.9759L1.17293 2.62327C1.17293 1.82832 1.81969 1.17899 2.61721 1.17899H17.6475V4.31879C17.6475 5.59816 18.6898 6.64049 19.9692 6.64049H23.109V28.9798C23.1103 29.7747 22.4637 30.4202 21.6687 30.4202ZM20.0724 23.5802C20.0724 23.8237 19.874 24.0183 19.6344 24.0183L4.65292 24.0196C4.40941 24.0196 4.21487 23.8211 4.21487 23.5815C4.21487 23.3406 4.41329 23.1435 4.65292 23.1435H19.6344C19.8779 23.1422 20.0724 23.3393 20.0724 23.5802ZM4.21494 8.01891C4.21494 7.7754 4.41335 7.58086 4.65298 7.58086L12.1437 7.57957C12.3872 7.57957 12.5818 7.77798 12.5818 8.01762C12.5818 8.26112 12.3834 8.45566 12.1437 8.45566L4.65298 8.45695C4.40948 8.45695 4.21494 8.25983 4.21494 8.01891ZM20.0724 15.7996C20.0724 16.0431 19.874 16.2376 19.6344 16.2376H4.65292C4.40941 16.2376 4.21487 16.0392 4.21487 15.7996C4.21487 15.5586 4.41329 15.3615 4.65292 15.3615H19.6344C19.8779 15.3615 20.0724 15.5561 20.0724 15.7996ZM20.0724 11.9073C20.0724 12.1508 19.874 12.3453 19.6344 12.3453L4.65292 12.3466C4.40941 12.3466 4.21487 12.1482 4.21487 11.9085C4.21487 11.6676 4.41329 11.4705 4.65292 11.4705H19.6344C19.8779 11.4692 20.0724 11.6663 20.0724 11.9073ZM20.0724 19.6919C20.0724 19.9354 19.874 20.1299 19.6344 20.1299H4.65292C4.40941 20.1299 4.21487 19.9315 4.21487 19.6919C4.21487 19.4484 4.41329 19.2538 4.65292 19.2538H19.6344C19.8779 19.25 20.0724 19.4471 20.0724 19.6919Z" fill="#00ADB5" stroke="#00ADB5" stroke-width="0.6"/>
</svg>
