<svg width="963" height="217" viewBox="0 0 963 217" fill="none" xmlns="http://www.w3.org/2000/svg">
<path d="M108.77 216.351C93.2738 216.351 78.8705 213.569 65.5598 208.007C52.4478 202.444 40.9251 194.696 30.9918 184.763C21.2571 174.829 13.6085 163.406 8.04581 150.493C2.6818 137.381 -0.000195201 123.375 -0.000195201 108.475C-0.000195201 93.5746 2.6818 79.5686 8.04581 66.4566C13.6085 53.3446 21.2571 41.8219 30.9918 31.8886C40.9251 21.9552 52.4478 14.2072 65.5598 8.64456C78.8705 2.88322 93.2738 0.00254488 108.77 0.00254488C126.451 0.00254488 141.45 2.88322 153.768 8.64456C166.284 14.2072 176.813 22.2532 185.356 32.7825L155.556 58.4106C149.993 52.2519 143.238 47.4839 135.292 44.1066C127.345 40.5306 118.504 38.7426 108.77 38.7426C95.4591 38.7426 83.8371 41.9212 73.9038 48.2786C64.1691 54.6359 56.6198 63.0792 51.2558 73.6086C45.8918 84.1379 43.2098 95.7599 43.2098 108.475C43.2098 121.189 45.8918 132.811 51.2558 143.341C56.6198 153.87 64.1691 162.313 73.9038 168.671C83.8371 175.028 95.4591 178.207 108.77 178.207C125.259 178.207 138.57 174.333 148.702 166.585C158.834 158.638 165.092 146.519 167.476 130.229L98.9358 130.825V93.2766H207.706C208.103 96.4552 208.401 100.329 208.6 104.899C208.997 109.269 209.196 113.143 209.196 116.521C209.196 135.791 205.123 152.976 196.978 168.075C189.031 182.975 177.508 194.795 162.41 203.537C147.51 212.079 129.63 216.351 108.77 216.351ZM231.532 212.477V3.87655H298.88C322.323 3.87655 340.699 9.33988 354.01 20.2666C367.519 30.9946 374.274 46.5899 374.274 67.0526C374.274 83.5419 369.804 96.8526 360.864 106.985C352.123 117.117 339.905 123.871 324.21 127.249L382.618 212.477H333.448L289.046 146.321C286.265 142.149 283.583 137.083 281 131.123H273.252V212.477H231.532ZM273.252 93.5746H296.496C307.82 93.5746 316.561 91.3892 322.72 87.0186C328.879 82.4492 331.958 75.8932 331.958 67.3506C331.958 59.0066 328.879 52.6492 322.72 48.2786C316.561 43.7092 307.82 41.4246 296.496 41.4246H273.252V93.5746ZM493.492 216.351C477.996 216.351 463.593 213.569 450.282 208.007C437.17 202.444 425.648 194.696 415.714 184.763C405.98 174.829 398.331 163.406 392.768 150.493C387.404 137.381 384.722 123.375 384.722 108.475C384.722 93.5746 387.404 79.5686 392.768 66.4566C398.331 53.3446 405.98 41.8219 415.714 31.8886C425.648 21.9552 437.17 14.2072 450.282 8.64456C463.593 2.88322 477.996 0.00254488 493.492 0.00254488C508.988 0.00254488 523.292 2.88322 536.404 8.64456C549.516 14.2072 560.94 21.9552 570.674 31.8886C580.409 41.8219 587.958 53.3446 593.322 66.4566C598.885 79.5686 601.666 93.5746 601.666 108.475C601.666 123.375 598.885 137.381 593.322 150.493C587.958 163.406 580.409 174.829 570.674 184.763C560.94 194.696 549.516 202.444 536.404 208.007C523.292 213.569 508.988 216.351 493.492 216.351ZM493.492 177.611C507.002 177.611 518.524 174.531 528.06 168.373C537.795 162.015 545.245 153.572 550.41 143.043C555.774 132.513 558.456 120.991 558.456 108.475C558.456 95.7599 555.774 84.1379 550.41 73.6086C545.245 63.0792 537.795 54.6359 528.06 48.2786C518.524 41.9212 507.002 38.7426 493.492 38.7426C479.983 38.7426 468.262 41.9212 458.328 48.2786C448.594 54.6359 441.044 63.0792 435.68 73.6086C430.515 84.1379 427.932 95.7599 427.932 108.475C427.932 120.991 430.515 132.513 435.68 143.043C441.044 153.572 448.594 162.015 458.328 168.373C468.262 174.531 479.983 177.611 493.492 177.611ZM705.466 216.351C688.579 216.351 673.779 212.973 661.064 206.219C648.349 199.265 638.515 189.729 631.562 177.611C624.609 165.293 621.132 151.188 621.132 135.295V3.87655H662.852V130.825C662.852 145.526 666.329 157.148 673.282 165.691C680.434 174.035 691.162 178.207 705.466 178.207C719.77 178.207 730.399 174.035 737.352 165.691C744.504 157.148 748.08 145.526 748.08 130.825V3.87655H789.8V135.295C789.8 151.188 786.323 165.293 779.37 177.611C772.417 189.729 762.583 199.265 749.868 206.219C737.352 212.973 722.551 216.351 705.466 216.351ZM816.764 212.477V3.87655H887.092C910.535 3.87655 928.912 9.43921 942.222 20.5645C955.732 31.4912 962.486 47.8812 962.486 69.7346C962.486 91.7866 955.732 108.475 942.222 119.799C928.912 131.123 910.535 136.785 887.092 136.785H858.484V212.477H816.764ZM858.484 99.2366H884.708C896.032 99.2366 904.774 96.8526 910.932 92.0846C917.091 87.3166 920.17 79.9659 920.17 70.0326C920.17 60.0992 917.091 52.8479 910.932 48.2786C904.774 43.5106 896.032 41.1265 884.708 41.1265H858.484V99.2366Z" fill="#373F48" fill-opacity="0.025"/>
</svg>
