<svg width="31" height="35" viewBox="0 0 31 35" fill="none" xmlns="http://www.w3.org/2000/svg">
<path d="M25.4071 24.3744C25.401 24.0435 25.1308 23.7779 24.7999 23.7779C24.469 23.7779 24.1989 24.0435 24.1928 24.3744V28.3662H3.34224C2.70021 28.3692 2.07636 28.5787 1.56485 28.9657V4.53296C1.56637 2.89367 2.89449 1.56558 4.53375 1.56407H24.1929V5.46801C24.1975 5.80042 24.4677 6.06605 24.8001 6.06605C25.131 6.06605 25.4027 5.80043 25.4072 5.46801V0.957125C25.4072 0.796234 25.3435 0.641413 25.2296 0.527563C25.1143 0.413724 24.961 0.349976 24.8001 0.349976H4.53393C2.22378 0.353011 0.353715 2.2245 0.350606 4.5333C0.349089 4.54089 0.349089 31.3612 0.352124 31.3674C0.359714 33.0143 1.6954 34.3485 3.34227 34.35H24.8029C24.9653 34.35 25.1231 34.2847 25.237 34.1678C25.3508 34.051 25.4115 33.8916 25.407 33.7277C25.41 33.7125 25.4009 28.986 25.41 28.9739C25.4115 28.9739 25.4009 24.3811 25.407 24.3748L25.4071 24.3744ZM24.1928 33.1354H3.34224C2.36173 33.1339 1.5694 32.3386 1.5694 31.3581C1.5694 30.3775 2.36173 29.5822 3.34224 29.5807H24.1928V33.1354Z" fill="#00ADB5" stroke="#00ADB5" stroke-width="0.7"/>
<path d="M20.0703 6.15453C20.2312 6.15453 20.386 6.09078 20.4998 5.97694C20.6137 5.8631 20.6774 5.70828 20.6774 5.54738V4.79453C20.6774 4.63364 20.6137 4.47882 20.4998 4.36497C20.386 4.25112 20.2312 4.18738 20.0703 4.18738C19.6286 4.18738 19.2689 3.82765 19.2689 3.38596C19.2689 3.22507 19.2051 3.07025 19.0913 2.9564C18.9774 2.84255 18.8226 2.77881 18.6617 2.77881H7.0956C6.93471 2.77881 6.77988 2.84256 6.66603 2.9564C6.5522 3.07023 6.48845 3.22506 6.48845 3.38596C6.48996 3.82613 6.13327 4.18586 5.69309 4.18738C5.5322 4.18738 5.37738 4.25113 5.26353 4.36497C5.14969 4.4788 5.08594 4.63363 5.08594 4.79453V25.0486C5.08594 25.2095 5.14969 25.3643 5.26353 25.4782C5.37736 25.592 5.53218 25.6558 5.69309 25.6558C6.13326 25.6573 6.48996 26.017 6.48845 26.4572C6.48845 26.6181 6.5522 26.7729 6.66603 26.8868C6.77987 27.0006 6.93469 27.0643 7.0956 27.0643H18.6617C18.8226 27.0643 18.9774 27.0006 19.0913 26.8868C19.2051 26.7729 19.2689 26.6181 19.2689 26.4572C19.2689 26.0155 19.6286 25.6558 20.0703 25.6558C20.2312 25.6558 20.386 25.592 20.4998 25.4782C20.6137 25.3644 20.6774 25.2095 20.6774 25.0486V24.2958C20.6774 24.1349 20.6137 23.9801 20.4998 23.8662C20.386 23.7524 20.2312 23.6886 20.0703 23.6886C19.5998 23.6901 19.4115 24.1212 19.4631 24.5341V24.5356C18.8378 24.7344 18.3475 25.2247 18.1487 25.85H7.61034C7.4115 25.2247 6.92429 24.7359 6.30044 24.5356V5.3077C6.92429 5.10735 7.41151 4.61861 7.61034 3.99325H18.1487C18.3475 4.61861 18.8378 5.10887 19.4631 5.3077C19.4115 5.72813 19.6028 6.14847 20.0703 6.15453Z" fill="#00ADB5" stroke="#00ADB5" stroke-width="0.7"/>
<path d="M22.5947 7.02869C20.5016 7.03172 18.4965 7.86349 17.0168 9.34339C15.5369 10.8233 14.7037 12.8284 14.7021 14.9213C15.1363 25.3912 30.0552 25.3885 30.4877 14.9213C30.4847 12.8282 29.6529 10.8231 28.173 9.34339C26.6931 7.86349 24.6876 7.03172 22.5947 7.02869ZM22.5947 21.6C20.8234 21.5985 19.1265 20.8942 17.8744 19.6419C16.6222 18.3897 15.9179 16.6928 15.9164 14.9216C16.2837 6.06189 28.9078 6.065 29.2734 14.9216C29.2719 16.693 28.5676 18.3899 27.3154 19.6419C26.0631 20.8942 24.3644 21.5985 22.5947 21.6Z" fill="#00ADB5" stroke="#00ADB5" stroke-width="0.7"/>
<path d="M23.2597 9.99287C22.3414 9.8001 21.3836 10.0308 20.6535 10.6197C19.922 11.2087 19.4939 12.0936 19.4863 13.0316C19.4863 13.367 19.758 13.6387 20.0935 13.6387C20.4289 13.6387 20.7006 13.367 20.7006 13.0316C20.7006 12.3288 21.0892 11.6837 21.7115 11.3544C22.3323 11.0265 23.0852 11.069 23.6649 11.4667C24.2463 11.8628 24.559 12.5489 24.4785 13.2471C24.3981 13.9453 23.9382 14.5418 23.2825 14.7968C22.22 15.2051 21.8937 16.1933 21.9878 17.2269C21.9954 17.5578 22.264 17.8219 22.5949 17.8219C22.9258 17.8219 23.196 17.5578 23.202 17.2269C23.1929 16.7215 23.1262 16.1462 23.7257 15.9276C24.9901 15.4176 25.7763 14.1472 25.6701 12.7887C25.5623 11.4318 24.5878 10.2995 23.2597 9.99287Z" fill="#00ADB5" stroke="#00ADB5" stroke-width="0.7"/>
<path d="M22.6068 19.03C22.2744 19.0346 22.0088 19.3048 22.0088 19.6372C22.0088 19.9696 22.2744 20.2398 22.6068 20.2443C22.9392 20.2398 23.2049 19.9696 23.2049 19.6372C23.2049 19.3048 22.9393 19.0346 22.6068 19.03Z" fill="#00ADB5" stroke="#00ADB5" stroke-width="0.7"/>
</svg>
