<svg width="38" height="40" viewBox="0 0 38 40" fill="none" xmlns="http://www.w3.org/2000/svg">
<path d="M3.54548 1.9621C5.07051 0.437096 7.36558 -0.019851 9.35896 0.806829C11.3504 1.63195 12.65 3.57698 12.65 5.73359C12.6483 7.19764 12.0572 8.52212 11.1021 9.48554L12.9556 11.7648C14.8431 10.2415 17.2037 9.39964 19.6509 9.3996C22.0162 9.3996 24.2993 10.1876 26.1539 11.6154L27.3433 10.7883C27.2704 10.6488 27.2022 10.5059 27.1412 10.3586C26.3145 8.3652 26.7714 6.07005 28.2965 4.54511C29.8215 3.02015 32.1166 2.56317 34.1099 3.38984C36.1014 4.21493 37.4009 6.16 37.401 8.31659C37.3976 11.2616 35.0129 13.6461 32.0679 13.6496C30.5293 13.6496 29.1013 12.9855 28.108 11.883L27.19 12.5217C27.191 12.5226 27.192 12.5236 27.1929 12.5246C29.1946 14.5246 30.3179 17.2382 30.3179 20.0666C30.3154 22.1927 29.6786 24.2525 28.5133 25.9934L29.3433 27.1018C30.7525 26.2988 32.4796 26.1655 34.026 26.8068C36.0174 27.6319 37.3169 29.577 37.317 31.7336C37.3136 34.6786 34.929 37.0641 31.984 37.0676C29.8273 37.0676 27.8823 35.7672 27.0572 33.7756C26.2305 31.7822 26.6875 29.487 28.2125 27.9621C28.2333 27.9412 28.2548 27.921 28.2759 27.9006L27.6676 27.0891C27.5134 27.2649 27.3564 27.4394 27.19 27.6057C26.8562 27.9397 26.5002 28.2464 26.1295 28.5305C26.127 28.533 26.1251 28.5367 26.1226 28.5393C26.0841 28.5777 26.0397 28.6083 25.9937 28.6359C24.1698 29.9872 21.949 30.7309 19.6509 30.7336C17.3441 30.7335 15.114 29.9859 13.2847 28.6242C13.2706 28.6149 13.2581 28.6033 13.2447 28.593C12.8461 28.2933 12.4656 27.9655 12.109 27.6086C12.0073 27.507 11.9092 27.4023 11.8121 27.2971L9.74763 30.2258C10.5798 31.1783 11.0669 32.4156 11.067 33.7336C11.0636 36.6786 8.67896 39.0641 5.73396 39.0676C3.57731 39.0676 1.63231 37.7672 0.8072 35.7756C-0.0194841 33.7822 0.437454 31.487 1.96247 29.9621C3.4875 28.4372 5.78263 27.9802 7.77595 28.8068C8.12115 28.9498 8.44423 29.1286 8.7447 29.3342L10.942 26.2199C9.67779 24.4316 8.98396 22.2853 8.98396 20.0666C8.98398 17.3053 10.0569 14.6556 11.9703 12.6701L10.0513 10.3098C9.25179 10.7888 8.31701 11.0654 7.31697 11.0666C5.16039 11.0666 3.21536 9.76704 2.39021 7.77558C1.56352 5.78219 2.02046 3.48704 3.54548 1.9621ZM5.73396 29.7336C4.11568 29.7336 2.65709 30.7084 2.03865 32.2033C1.41865 33.6967 1.76252 35.4183 2.90583 36.5617C4.0492 37.7051 5.77078 38.0489 7.26423 37.4289C8.75912 36.8105 9.73396 35.3519 9.73396 33.7336C9.7322 31.5253 7.94225 29.7353 5.73396 29.7336ZM31.984 27.7336C30.3657 27.7336 28.9071 28.7084 28.2886 30.2033C27.6686 31.6967 28.0125 33.4183 29.1558 34.5617C30.2992 35.7051 32.0208 36.0489 33.5142 35.4289C35.0091 34.8105 35.984 33.3519 35.984 31.7336C35.9822 29.5253 34.1923 27.7353 31.984 27.7336ZM19.6509 22.7336C16.8186 22.7336 14.5019 24.9428 14.3287 27.7316C15.8811 28.8093 17.7353 29.4005 19.6509 29.4006C21.5663 29.4006 23.4199 28.8089 24.9722 27.7316C24.799 24.9429 22.4833 22.7336 19.6509 22.7336ZM19.6509 10.7336C17.176 10.7336 14.8015 11.717 13.0513 13.467C11.3014 15.217 10.318 17.5915 10.3179 20.0666C10.3179 22.5417 11.3013 24.917 13.0513 26.6672C13.0733 26.6892 13.0965 26.7099 13.1187 26.7316C13.4963 24.8834 14.6475 23.2575 16.3179 22.2941C16.5967 22.1331 16.8845 21.9946 17.1783 21.8771C16.65 21.4616 16.2237 20.9109 15.9556 20.2629C15.336 18.7696 15.6796 17.0477 16.8228 15.9045C17.9662 14.7613 19.6879 14.4183 21.1812 15.0383C22.6763 15.6566 23.6509 17.1152 23.6509 18.7336C23.6499 20.0093 23.0512 21.1438 22.1207 21.8762C22.4155 21.9939 22.7043 22.1326 22.984 22.2941C24.6546 23.2577 25.8047 24.8842 26.1822 26.7326C26.2049 26.7104 26.2291 26.6896 26.2515 26.6672C28.0016 24.9171 28.9849 22.5417 28.9849 20.0666C28.9815 17.5916 27.9976 15.2201 26.2476 13.4699C24.4976 11.72 22.1259 10.737 19.6509 10.7336ZM19.6509 16.0666C18.5728 16.0667 17.5998 16.7166 17.1881 17.7131C16.7747 18.7097 17.0028 19.8567 17.7662 20.6184C18.5279 21.3817 19.6748 21.6098 20.6715 21.1965C21.6679 20.7848 22.3179 19.8117 22.3179 18.7336C22.3179 18.0269 22.0367 17.3479 21.5367 16.8478C21.0367 16.3478 20.3576 16.0666 19.6509 16.0666ZM32.0679 4.31659C30.4496 4.31659 28.991 5.29139 28.3726 6.78632C27.7526 8.27969 28.0965 10.0013 29.2398 11.1447C30.3832 12.2881 32.1048 12.6319 33.5982 12.0119C35.0931 11.3935 36.0679 9.93491 36.0679 8.31659C36.0663 6.10825 34.2763 4.3183 32.0679 4.31659ZM7.31697 1.73359C5.69861 1.73359 4.24005 2.70832 3.62165 4.20331C3.00165 5.69668 3.3455 7.41831 4.48884 8.56171C5.6322 9.705 7.35383 10.0489 8.84724 9.4289C10.3422 8.81054 11.3169 7.35188 11.317 5.73359C11.3153 3.52523 9.52531 1.7353 7.31697 1.73359Z" fill="#00ADB5"/>
<path d="M3.54548 1.9621L3.82832 2.24495L3.82832 2.24495L3.54548 1.9621ZM9.35896 0.806829L9.20573 1.17632L9.20585 1.17637L9.35896 0.806829ZM12.65 5.73359L13.05 5.73404V5.73359H12.65ZM11.1021 9.48554L10.818 9.20394L10.5651 9.45913L10.7918 9.73791L11.1021 9.48554ZM12.9556 11.7648L12.6453 12.0172L12.8967 12.3264L13.2069 12.0761L12.9556 11.7648ZM19.6509 9.3996V8.9996H19.6509L19.6509 9.3996ZM26.1539 11.6154L25.9099 11.9324L26.1419 12.111L26.3822 11.9438L26.1539 11.6154ZM27.3433 10.7883L27.5717 11.1167L27.8611 10.9154L27.6978 10.603L27.3433 10.7883ZM27.1412 10.3586L27.5107 10.2055L27.5107 10.2054L27.1412 10.3586ZM28.2965 4.54511L28.5793 4.82796L28.5793 4.82796L28.2965 4.54511ZM34.1099 3.38984L33.9567 3.75932L33.9568 3.75938L34.1099 3.38984ZM37.401 8.31659L37.8009 8.31705V8.31659L37.401 8.31659ZM32.0679 13.6496V14.0496H32.0684L32.0679 13.6496ZM28.108 11.883L28.4051 11.6152L28.1691 11.3532L27.8795 11.5547L28.108 11.883ZM27.19 12.5217L26.9616 12.1933L26.569 12.4664L26.9072 12.8045L27.19 12.5217ZM27.1929 12.5246L26.91 12.8073L26.9102 12.8076L27.1929 12.5246ZM30.3179 20.0666L30.7179 20.0671V20.0666L30.3179 20.0666ZM28.5133 25.9934L28.1809 25.7708L28.0232 26.0063L28.1931 26.2331L28.5133 25.9934ZM29.3433 27.1018L29.0232 27.3415L29.2347 27.624L29.5414 27.4493L29.3433 27.1018ZM34.026 26.8068L33.8727 27.1763L33.8728 27.1764L34.026 26.8068ZM37.317 31.7336L37.717 31.734V31.7336L37.317 31.7336ZM31.984 37.0676V37.4676H31.9844L31.984 37.0676ZM27.0572 33.7756L27.4267 33.6225L27.4267 33.6223L27.0572 33.7756ZM28.2125 27.9621L27.9296 27.6792L27.9296 27.6793L28.2125 27.9621ZM28.2759 27.9006L28.5541 28.1881L28.8076 27.9428L28.596 27.6606L28.2759 27.9006ZM27.6676 27.0891L27.9876 26.8491L27.6918 26.4546L27.3668 26.8254L27.6676 27.0891ZM27.19 27.6057L26.9073 27.3227L26.9071 27.3229L27.19 27.6057ZM26.1295 28.5305L25.8862 28.2129L25.8627 28.2309L25.8421 28.2522L26.1295 28.5305ZM26.1226 28.5393L26.4053 28.8223L26.4055 28.8221L26.1226 28.5393ZM25.9937 28.6359L25.7877 28.2931L25.7711 28.303L25.7556 28.3145L25.9937 28.6359ZM19.6509 30.7336L19.6509 31.1336H19.6514L19.6509 30.7336ZM13.2847 28.6242L13.5236 28.3033L13.5143 28.2964L13.5047 28.2901L13.2847 28.6242ZM13.2447 28.593L13.4894 28.2765L13.4851 28.2732L13.2447 28.593ZM12.109 27.6086L12.3919 27.3258L12.3917 27.3256L12.109 27.6086ZM11.8121 27.2971L12.106 27.0257L11.7703 26.6621L11.4851 27.0666L11.8121 27.2971ZM9.74763 30.2258L9.42069 29.9953L9.23959 30.2522L9.44639 30.4889L9.74763 30.2258ZM11.067 33.7336L11.467 33.734V33.7336L11.067 33.7336ZM5.73396 39.0676V39.4676H5.73443L5.73396 39.0676ZM0.8072 35.7756L1.17674 35.6225L1.17669 35.6223L0.8072 35.7756ZM1.96247 29.9621L1.67964 29.6792L1.67964 29.6793L1.96247 29.9621ZM7.77595 28.8068L7.62272 29.1763L7.62285 29.1764L7.77595 28.8068ZM8.7447 29.3342L8.51883 29.6643L8.84424 29.8869L9.07154 29.5648L8.7447 29.3342ZM10.942 26.2199L11.2688 26.4505L11.4317 26.2197L11.2686 25.989L10.942 26.2199ZM8.98396 20.0666L8.58396 20.0666V20.0666H8.98396ZM11.9703 12.6701L12.2583 12.9477L12.5041 12.6926L12.2807 12.4178L11.9703 12.6701ZM10.0513 10.3098L10.3617 10.0574L10.1431 9.7885L9.84575 9.96663L10.0513 10.3098ZM7.31697 11.0666V11.4666H7.31744L7.31697 11.0666ZM2.39021 7.77558L2.75974 7.62246L2.75969 7.62235L2.39021 7.77558ZM5.73396 29.7336L5.73427 29.3336H5.73396V29.7336ZM2.03865 32.2033L2.40807 32.3567L2.40826 32.3562L2.03865 32.2033ZM2.90583 36.5617L2.62298 36.8445L2.62299 36.8446L2.90583 36.5617ZM7.26423 37.4289L7.11133 37.0593L7.11085 37.0595L7.26423 37.4289ZM9.73396 33.7336H10.134V33.7333L9.73396 33.7336ZM31.984 27.7336L31.9843 27.3336H31.984V27.7336ZM28.2886 30.2033L28.6581 30.3567L28.6583 30.3562L28.2886 30.2033ZM29.1558 34.5617L28.873 34.8445L28.873 34.8446L29.1558 34.5617ZM33.5142 35.4289L33.3613 35.0593L33.3609 35.0595L33.5142 35.4289ZM35.984 31.7336H36.384V31.7333L35.984 31.7336ZM19.6509 22.7336V22.3336V22.3336V22.7336ZM14.3287 27.7316L13.9295 27.7068L13.9155 27.9317L14.1006 28.0602L14.3287 27.7316ZM19.6509 29.4006L19.6509 29.8006H19.6509V29.4006ZM24.9722 27.7316L25.2003 28.0602L25.3854 27.9318L25.3715 27.7068L24.9722 27.7316ZM19.6509 10.7336L19.6515 10.3336H19.6509L19.6509 10.7336ZM13.0513 13.467L12.7685 13.1841L12.7685 13.1841L13.0513 13.467ZM10.3179 20.0666L9.91794 20.0666V20.0666H10.3179ZM13.0513 26.6672L12.7685 26.95L12.7685 26.95L13.0513 26.6672ZM13.1187 26.7316L12.8387 27.0173L13.3635 27.5317L13.5106 26.8117L13.1187 26.7316ZM16.3179 22.2941L16.5178 22.6406L16.518 22.6405L16.3179 22.2941ZM17.1783 21.8771L17.3268 22.2485L17.9703 21.9912L17.4256 21.5628L17.1783 21.8771ZM15.9556 20.2629L16.3253 20.11L16.3251 20.1096L15.9556 20.2629ZM16.8228 15.9045L16.54 15.6216L16.54 15.6217L16.8228 15.9045ZM21.1812 15.0383L21.0278 15.4077L21.0283 15.4079L21.1812 15.0383ZM23.6509 18.7336L24.0509 18.7339V18.7336H23.6509ZM22.1207 21.8762L21.8733 21.5618L21.3286 21.9906L21.9723 22.2476L22.1207 21.8762ZM22.984 22.2941L22.7839 22.6405L22.7841 22.6406L22.984 22.2941ZM26.1822 26.7326L25.7903 26.8126L25.9373 27.5325L26.4621 27.0183L26.1822 26.7326ZM26.2515 26.6672L26.5344 26.95L26.5344 26.95L26.2515 26.6672ZM28.9849 20.0666H29.3849L29.3849 20.066L28.9849 20.0666ZM26.2476 13.4699L26.5305 13.1871L26.5305 13.1871L26.2476 13.4699ZM19.6509 16.0666V15.6666H19.6509L19.6509 16.0666ZM17.1881 17.7131L17.5575 17.8663L17.5578 17.8658L17.1881 17.7131ZM17.7662 20.6184L18.0493 20.3358L18.0487 20.3352L17.7662 20.6184ZM20.6715 21.1965L20.5187 20.8268L20.5182 20.827L20.6715 21.1965ZM22.3179 18.7336L22.7179 18.7336V18.7336H22.3179ZM21.5367 16.8478L21.8195 16.565L21.8195 16.565L21.5367 16.8478ZM32.0679 4.31659L32.0683 3.91659H32.0679V4.31659ZM28.3726 6.78632L28.7421 6.9397L28.7423 6.93923L28.3726 6.78632ZM29.2398 11.1447L28.957 11.4276L28.957 11.4276L29.2398 11.1447ZM33.5982 12.0119L33.4453 11.6423L33.4448 11.6425L33.5982 12.0119ZM36.0679 8.31659H36.4679V8.31629L36.0679 8.31659ZM7.31697 1.73359L7.31728 1.33359H7.31697V1.73359ZM3.62165 4.20331L3.99108 4.35669L3.99128 4.35621L3.62165 4.20331ZM4.48884 8.56171L4.20599 8.84455L4.20601 8.84456L4.48884 8.56171ZM8.84724 9.4289L8.69435 9.05927L8.69386 9.05947L8.84724 9.4289ZM11.317 5.73359L11.717 5.7336V5.73328L11.317 5.73359ZM3.54548 1.9621L3.82832 2.24495C5.23897 0.83432 7.36193 0.411669 9.20573 1.17632L9.35896 0.806829L9.51219 0.437343C7.36923 -0.451371 4.90205 0.0398712 3.26264 1.67926L3.54548 1.9621ZM9.35896 0.806829L9.20585 1.17637C11.0479 1.93955 12.25 3.73871 12.25 5.73359H12.65H13.05C13.05 3.41524 11.653 1.32434 9.51206 0.437291L9.35896 0.806829ZM12.65 5.73359L12.25 5.73313C12.2484 7.08746 11.7021 8.31213 10.818 9.20394L11.1021 9.48554L11.3862 9.76714C12.4122 8.7321 13.0482 7.30781 13.05 5.73404L12.65 5.73359ZM11.1021 9.48554L10.7918 9.73791L12.6453 12.0172L12.9556 11.7648L13.266 11.5125L11.4125 9.23317L11.1021 9.48554ZM12.9556 11.7648L13.2069 12.0761C15.0235 10.6099 17.2956 9.79964 19.651 9.7996L19.6509 9.3996L19.6509 8.9996C17.1118 8.99965 14.6626 9.87314 12.7044 11.4536L12.9556 11.7648ZM19.6509 9.3996V9.7996C21.9271 9.7996 24.1246 10.5579 25.9099 11.9324L26.1539 11.6154L26.3979 11.2985C24.474 9.81724 22.1052 8.9996 19.6509 8.9996V9.3996ZM26.1539 11.6154L26.3822 11.9438L27.5717 11.1167L27.3433 10.7883L27.115 10.4599L25.9255 11.287L26.1539 11.6154ZM27.3433 10.7883L27.6978 10.603C27.6294 10.4721 27.5664 10.34 27.5107 10.2055L27.1412 10.3586L26.7716 10.5117C26.838 10.6718 26.9115 10.8255 26.9888 10.9736L27.3433 10.7883ZM27.1412 10.3586L27.5107 10.2054C26.746 8.36154 27.1687 6.23851 28.5793 4.82796L28.2965 4.54511L28.0136 4.26226C26.3742 5.90159 25.883 8.36886 26.7717 10.5118L27.1412 10.3586ZM28.2965 4.54511L28.5793 4.82796C29.9899 3.41737 32.1129 2.99469 33.9567 3.75932L34.1099 3.38984L34.2632 3.02035C32.1202 2.13165 29.653 2.62293 28.0136 4.26226L28.2965 4.54511ZM34.1099 3.38984L33.9568 3.75938C35.7988 4.52254 37.0009 6.32173 37.0009 8.3166L37.401 8.31659L37.8009 8.31659C37.8009 5.99827 36.404 3.90733 34.263 3.0203L34.1099 3.38984ZM37.401 8.31659L37.0009 8.31614C36.9979 11.0406 34.7919 13.2464 32.0675 13.2496L32.0679 13.6496L32.0684 14.0496C35.2339 14.0459 37.7974 11.4826 37.8009 8.31705L37.401 8.31659ZM32.0679 13.6496V13.2496C30.6455 13.2496 29.3247 12.6358 28.4051 11.6152L28.108 11.883L27.8108 12.1508C28.878 13.3352 30.413 14.0496 32.0679 14.0496V13.6496ZM28.108 11.883L27.8795 11.5547L26.9616 12.1933L27.19 12.5217L27.4185 12.85L28.3364 12.2113L28.108 11.883ZM27.19 12.5217L26.9072 12.8045C26.9083 12.8056 26.9091 12.8064 26.91 12.8073L27.1929 12.5246L27.4759 12.2419C27.4748 12.2408 27.4737 12.2397 27.4728 12.2388L27.19 12.5217ZM27.1929 12.5246L26.9102 12.8076C28.8367 14.7325 29.9179 17.3442 29.9179 20.0666L30.3179 20.0666L30.7179 20.0666C30.7179 17.1322 29.5525 14.3168 27.4757 12.2416L27.1929 12.5246ZM30.3179 20.0666L29.9179 20.0661C29.9155 22.1125 29.3026 24.0952 28.1809 25.7708L28.5133 25.9934L28.8456 26.2159C30.0547 24.4098 30.7153 22.2729 30.7179 20.0671L30.3179 20.0666ZM28.5133 25.9934L28.1931 26.2331L29.0232 27.3415L29.3433 27.1018L29.6635 26.862L28.8334 25.7536L28.5133 25.9934ZM29.3433 27.1018L29.5414 27.4493C30.8453 26.7063 32.4429 26.5833 33.8727 27.1763L34.026 26.8068L34.1792 26.4373C32.5163 25.7477 30.6596 25.8913 29.1453 26.7542L29.3433 27.1018ZM34.026 26.8068L33.8728 27.1764C35.7148 27.9395 36.9169 29.7387 36.917 31.7336L37.317 31.7336L37.717 31.7336C37.7169 29.4153 36.32 27.3243 34.1791 26.4373L34.026 26.8068ZM37.317 31.7336L36.917 31.7331C36.9139 34.4577 34.7079 36.6644 31.9835 36.6676L31.984 37.0676L31.9844 37.4676C35.1501 37.4639 37.7134 34.8995 37.717 31.734L37.317 31.7336ZM31.984 37.0676V36.6676C29.9892 36.6676 28.19 35.4647 27.4267 33.6225L27.0572 33.7756L26.6877 33.9287C27.5747 36.0696 29.6655 37.4676 31.984 37.4676V37.0676ZM27.0572 33.7756L27.4267 33.6223C26.662 31.7785 27.0847 29.6555 28.4953 28.245L28.2125 27.9621L27.9296 27.6793C26.2902 29.3186 25.799 31.7859 26.6877 33.9288L27.0572 33.7756ZM28.2125 27.9621L28.4953 28.245C28.5132 28.227 28.5275 28.2138 28.5541 28.1881L28.2759 27.9006L27.9978 27.6131C27.9821 27.6283 27.9534 27.6555 27.9296 27.6792L28.2125 27.9621ZM28.2759 27.9006L28.596 27.6606L27.9876 26.8491L27.6676 27.0891L27.3475 27.329L27.9559 28.1405L28.2759 27.9006ZM27.6676 27.0891L27.3668 26.8254C27.2143 26.9992 27.0643 27.1658 26.9073 27.3227L27.19 27.6057L27.4727 27.8886C27.6486 27.7129 27.8124 27.5306 27.9683 27.3528L27.6676 27.0891ZM27.19 27.6057L26.9071 27.3229C26.5873 27.643 26.2448 27.9382 25.8862 28.2129L26.1295 28.5305L26.3727 28.848C26.7557 28.5546 27.1252 28.2364 27.473 27.8884L27.19 27.6057ZM26.1295 28.5305L25.8421 28.2522C25.8336 28.261 25.8266 28.269 25.8211 28.2756C25.8155 28.2823 25.811 28.2881 25.8077 28.2926C25.8044 28.297 25.8018 28.3007 25.8002 28.3029C25.7994 28.304 25.7987 28.305 25.7983 28.3056C25.7981 28.3059 25.7979 28.3062 25.7978 28.3064C25.7977 28.3064 25.7977 28.3065 25.7976 28.3066C25.7976 28.3066 25.7976 28.3067 25.7975 28.3067C25.7972 28.3071 25.7982 28.3058 25.7994 28.304C25.8008 28.3021 25.8031 28.2988 25.8062 28.2948C25.8094 28.2907 25.8137 28.2852 25.8191 28.2788C25.8245 28.2725 25.8314 28.2648 25.8398 28.2564L26.1226 28.5393L26.4055 28.8221C26.4145 28.813 26.422 28.8047 26.428 28.7977C26.434 28.7907 26.4389 28.7844 26.4426 28.7796C26.4463 28.7748 26.4492 28.7707 26.4511 28.7681C26.4529 28.7656 26.4543 28.7634 26.4546 28.763C26.4552 28.7621 26.4544 28.7633 26.4536 28.7645C26.4525 28.766 26.4505 28.7689 26.4477 28.7725C26.445 28.7762 26.441 28.7813 26.4361 28.7873C26.4311 28.7933 26.4247 28.8006 26.4168 28.8087L26.1295 28.5305ZM26.1226 28.5393L25.84 28.2562C25.8343 28.2619 25.821 28.2731 25.7877 28.2931L25.9937 28.6359L26.1997 28.9788C26.2583 28.9436 26.3339 28.8936 26.4053 28.8223L26.1226 28.5393ZM25.9937 28.6359L25.7556 28.3145C24 29.6152 21.8624 30.331 19.6505 30.3336L19.6509 30.7336L19.6514 31.1336C22.0356 31.1308 24.3395 30.3593 26.2318 28.9573L25.9937 28.6359ZM19.6509 30.7336L19.651 30.3336C17.4306 30.3335 15.2843 29.614 13.5236 28.3033L13.2847 28.6242L13.0459 28.9451C14.9438 30.3578 17.2575 31.1335 19.6509 31.1336L19.6509 30.7336ZM13.2847 28.6242L13.5047 28.2901C13.5102 28.2938 13.5142 28.2967 13.5161 28.2982C13.518 28.2996 13.5187 28.3002 13.5172 28.299C13.5165 28.2984 13.5155 28.2976 13.514 28.2963C13.5127 28.2952 13.5105 28.2934 13.5083 28.2917C13.504 28.2881 13.4972 28.2826 13.4894 28.2765L13.2447 28.593L13 28.9094C12.9989 28.9085 12.9987 28.9084 13.0009 28.9101C13.002 28.9111 13.0031 28.9119 13.005 28.9136C13.0068 28.915 13.0091 28.9169 13.0117 28.919C13.0211 28.9267 13.0404 28.9422 13.0648 28.9583L13.2847 28.6242ZM13.2447 28.593L13.4851 28.2732C13.1007 27.9843 12.7346 27.6688 12.3919 27.3258L12.109 27.6086L11.826 27.8913C12.1967 28.2622 12.5915 28.6023 13.0043 28.9127L13.2447 28.593ZM12.109 27.6086L12.3917 27.3256C12.2959 27.2299 12.2022 27.1299 12.106 27.0257L11.8121 27.2971L11.5182 27.5684C11.6162 27.6746 11.7187 27.7841 11.8262 27.8915L12.109 27.6086ZM11.8121 27.2971L11.4851 27.0666L9.42069 29.9953L9.74763 30.2258L10.0746 30.4562L12.139 27.5275L11.8121 27.2971ZM9.74763 30.2258L9.44639 30.4889C10.2167 31.3706 10.6669 32.5151 10.667 33.7336L11.067 33.7336L11.467 33.7336C11.4669 32.3161 10.9429 30.986 10.0489 29.9626L9.74763 30.2258ZM11.067 33.7336L10.667 33.7331C10.6639 36.4577 8.45786 38.6644 5.73349 38.6676L5.73396 39.0676L5.73443 39.4676C8.90006 39.4639 11.4634 36.8995 11.467 33.734L11.067 33.7336ZM5.73396 39.0676V38.6676C3.73916 38.6676 1.93996 37.4647 1.17674 35.6225L0.8072 35.7756L0.437659 35.9287C1.32465 38.0696 3.41545 39.4676 5.73396 39.4676V39.0676ZM0.8072 35.7756L1.17669 35.6223C0.412033 33.7785 0.834684 31.6555 2.24531 30.245L1.96247 29.9621L1.67964 29.6793C0.0402229 31.3186 -0.451001 33.7859 0.437713 35.9288L0.8072 35.7756ZM1.96247 29.9621L2.24531 30.245C3.65596 28.8344 5.77899 28.4117 7.62272 29.1763L7.77595 28.8068L7.92918 28.4373C5.78627 27.5486 3.31904 28.04 1.67964 29.6792L1.96247 29.9621ZM7.77595 28.8068L7.62285 29.1764C7.94065 29.308 8.23947 29.4732 8.51883 29.6643L8.7447 29.3342L8.97057 29.004C8.64898 28.784 8.30166 28.5917 7.92905 28.4373L7.77595 28.8068ZM8.7447 29.3342L9.07154 29.5648L11.2688 26.4505L10.942 26.2199L10.6151 25.9893L8.41786 29.1036L8.7447 29.3342ZM10.942 26.2199L11.2686 25.989C10.0516 24.2675 9.38396 22.2017 9.38396 20.0666H8.98396H8.58396C8.58396 22.3689 9.30394 24.5957 10.6153 26.4508L10.942 26.2199ZM8.98396 20.0666L9.38396 20.0666C9.38398 17.4091 10.4165 14.8588 12.2583 12.9477L11.9703 12.6701L11.6823 12.3925C9.6972 14.4524 8.58398 17.2014 8.58396 20.0666L8.98396 20.0666ZM11.9703 12.6701L12.2807 12.4178L10.3617 10.0574L10.0513 10.3098L9.74097 10.5621L11.6599 12.9224L11.9703 12.6701ZM10.0513 10.3098L9.84575 9.96663C9.10624 10.4097 8.24205 10.6655 7.3165 10.6666L7.31697 11.0666L7.31744 11.4666C8.39196 11.4653 9.39733 11.1679 10.2569 10.6529L10.0513 10.3098ZM7.31697 11.0666V10.6666C5.32213 10.6666 3.52296 9.46445 2.75974 7.62246L2.39021 7.77558L2.02067 7.92869C2.90776 10.0696 4.99865 11.4666 7.31697 11.4666V11.0666ZM2.39021 7.77558L2.75969 7.62235C1.99504 5.77854 2.41769 3.6555 3.82832 2.24495L3.54548 1.9621L3.26265 1.67925C1.62323 3.31858 1.13201 5.78585 2.02072 7.92881L2.39021 7.77558ZM5.73396 29.7336V29.3336C3.95389 29.3336 2.34937 30.4059 1.66903 32.0504L2.03865 32.2033L2.40826 32.3562C2.96481 31.011 4.27746 30.1336 5.73396 30.1336V29.7336ZM2.03865 32.2033L1.66922 32.0499C0.986974 33.6932 1.36551 35.587 2.62298 36.8445L2.90583 36.5617L3.18869 36.2789C2.15954 35.2496 1.85032 33.7001 2.40807 32.3567L2.03865 32.2033ZM2.90583 36.5617L2.62299 36.8446C3.88053 38.1021 5.77423 38.4806 7.41761 37.7983L7.26423 37.4289L7.11085 37.0595C5.76733 37.6173 4.21786 37.3081 3.18868 36.2789L2.90583 36.5617ZM7.26423 37.4289L7.41713 37.7985C9.06166 37.1182 10.134 35.5137 10.134 33.7336H9.73396H9.33396C9.33396 35.1901 8.45659 36.5028 7.11133 37.0593L7.26423 37.4289ZM9.73396 33.7336L10.134 33.7333C10.132 31.3043 8.16324 29.3355 5.73427 29.3336L5.73396 29.7336L5.73365 30.1336C7.72126 30.1351 9.33238 31.7463 9.33396 33.7339L9.73396 33.7336ZM31.984 27.7336V27.3336C30.2039 27.3336 28.5994 28.4059 27.919 30.0504L28.2886 30.2033L28.6583 30.3562C29.2148 29.011 30.5275 28.1336 31.984 28.1336V27.7336ZM28.2886 30.2033L27.9192 30.0499C27.237 31.6932 27.6155 33.587 28.873 34.8445L29.1558 34.5617L29.4387 34.2789C28.4095 33.2496 28.1003 31.7001 28.6581 30.3567L28.2886 30.2033ZM29.1558 34.5617L28.873 34.8446C30.1305 36.1021 32.0242 36.4806 33.6676 35.7983L33.5142 35.4289L33.3609 35.0595C32.0173 35.6173 30.4679 35.3081 29.4387 34.2789L29.1558 34.5617ZM33.5142 35.4289L33.6671 35.7985C35.3117 35.1182 36.384 33.5137 36.384 31.7336H35.984H35.584C35.584 33.1901 34.7066 34.5028 33.3613 35.0593L33.5142 35.4289ZM35.984 31.7336L36.384 31.7333C36.382 29.3043 34.4132 27.3355 31.9843 27.3336L31.984 27.7336L31.9836 28.1336C33.9713 28.1351 35.5824 29.7463 35.584 31.7339L35.984 31.7336ZM19.6509 22.7336V22.3336C16.6059 22.3336 14.1157 24.7086 13.9295 27.7068L14.3287 27.7316L14.7279 27.7564C14.8881 25.1771 17.0313 23.1336 19.651 23.1336L19.6509 22.7336ZM14.3287 27.7316L14.1006 28.0602C15.7192 29.1838 17.6528 29.8005 19.6509 29.8006L19.6509 29.4006L19.651 29.0006C17.8178 29.0005 16.043 28.4348 14.5568 27.403L14.3287 27.7316ZM19.6509 29.4006V29.8006C21.6488 29.8006 23.5819 29.1834 25.2003 28.0602L24.9722 27.7316L24.7442 27.403C23.258 28.4344 21.4837 29.0006 19.6509 29.0006V29.4006ZM24.9722 27.7316L25.3715 27.7068C25.1852 24.7087 22.6961 22.3336 19.6509 22.3336V22.7336V23.1336C22.2705 23.1336 24.4128 25.177 24.573 27.7564L24.9722 27.7316ZM19.6509 10.7336L19.6509 10.3336C17.0699 10.3336 14.5937 11.3592 12.7685 13.1841L13.0513 13.467L13.3342 13.7498C15.0093 12.0749 17.2821 11.1336 19.651 11.1336L19.6509 10.7336ZM13.0513 13.467L12.7685 13.1841C10.9435 15.0092 9.91802 17.4855 9.91794 20.0666L10.3179 20.0666L10.7179 20.0666C10.718 17.6976 11.6592 15.4248 13.3342 13.7498L13.0513 13.467ZM10.3179 20.0666H9.91794C9.91794 22.6478 10.9434 25.1247 12.7685 26.95L13.0513 26.6672L13.3342 26.3844C11.6592 24.7092 10.7179 22.4357 10.7179 20.0666H10.3179ZM13.0513 26.6672L12.7685 26.95C12.7843 26.9659 12.7997 26.9803 12.811 26.9909C12.8236 27.0028 12.8313 27.01 12.8387 27.0173L13.1187 26.7316L13.3987 26.446C13.3839 26.4315 13.369 26.4175 13.359 26.4081C13.3476 26.3974 13.3403 26.3905 13.3342 26.3843L13.0513 26.6672ZM13.1187 26.7316L13.5106 26.8117C13.8656 25.0744 14.9477 23.5461 16.5178 22.6406L16.3179 22.2941L16.1181 21.9476C14.3473 22.9689 13.1271 24.6924 12.7268 26.6516L13.1187 26.7316ZM16.3179 22.2941L16.518 22.6405C16.7796 22.4894 17.05 22.3592 17.3268 22.2485L17.1783 21.8771L17.0298 21.5057C16.7189 21.63 16.4139 21.7768 16.1179 21.9478L16.3179 22.2941ZM17.1783 21.8771L17.4256 21.5628C16.9501 21.1887 16.5665 20.6932 16.3253 20.11L15.9556 20.2629L15.586 20.4158C15.8808 21.1286 16.3499 21.7344 16.931 22.1915L17.1783 21.8771ZM15.9556 20.2629L16.3251 20.1096C15.7676 18.7662 16.0767 17.2164 17.1057 16.1873L16.8228 15.9045L16.54 15.6217C15.2826 16.8791 14.9043 18.7731 15.5862 20.4162L15.9556 20.2629ZM16.8228 15.9045L17.1056 16.1873C18.1347 15.1584 19.6843 14.8499 21.0278 15.4077L21.1812 15.0383L21.3346 14.6688C19.6915 13.9867 17.7977 14.3642 16.54 15.6216L16.8228 15.9045ZM21.1812 15.0383L21.0283 15.4079C22.3737 15.9643 23.2509 17.277 23.2509 18.7336H23.6509H24.0509C24.0509 16.9535 22.9788 15.3489 21.3341 14.6686L21.1812 15.0383ZM23.6509 18.7336L23.2509 18.7333C23.25 19.8809 22.712 20.9018 21.8733 21.5618L22.1207 21.8762L22.3681 22.1905C23.3904 21.3859 24.0498 20.1377 24.0509 18.7339L23.6509 18.7336ZM22.1207 21.8762L21.9723 22.2476C22.2502 22.3586 22.5216 22.489 22.7839 22.6405L22.984 22.2941L23.184 21.9477C22.8869 21.7762 22.5808 21.6292 22.269 21.5047L22.1207 21.8762ZM22.984 22.2941L22.7841 22.6406C24.3542 23.5462 25.4354 25.075 25.7903 26.8126L26.1822 26.7326L26.5741 26.6526C26.174 24.6934 24.9549 22.9691 23.1838 21.9476L22.984 22.2941ZM26.1822 26.7326L26.4621 27.0183C26.4681 27.0125 26.4748 27.0063 26.488 26.9942C26.4994 26.9836 26.5166 26.9678 26.5344 26.95L26.2515 26.6672L25.9687 26.3843C25.964 26.3891 25.9579 26.3948 25.9459 26.4058C25.9357 26.4152 25.9189 26.4306 25.9023 26.4469L26.1822 26.7326ZM26.2515 26.6672L26.5344 26.95C28.3595 25.1249 29.3849 22.6477 29.3849 20.0666H28.9849H28.5849C28.5849 22.4357 27.6437 24.7094 25.9687 26.3843L26.2515 26.6672ZM28.9849 20.0666L29.3849 20.066C29.3814 17.4852 28.3554 15.0121 26.5305 13.1871L26.2476 13.4699L25.9648 13.7527C27.6399 15.428 28.5817 17.698 28.5849 20.0671L28.9849 20.0666ZM26.2476 13.4699L26.5305 13.1871C24.7055 11.3622 22.2322 10.3371 19.6515 10.3336L19.6509 10.7336L19.6504 11.1336C22.0196 11.1368 24.2897 12.0778 25.9648 13.7528L26.2476 13.4699ZM19.6509 16.0666L19.6509 15.6666C18.4111 15.6667 17.292 16.414 16.8184 17.5603L17.1881 17.7131L17.5578 17.8658C17.9075 17.0192 18.7345 16.4667 19.651 16.4666L19.6509 16.0666ZM17.1881 17.7131L16.8186 17.5598C16.3432 18.706 16.6055 20.0252 17.4836 20.9015L17.7662 20.6184L18.0487 20.3352C17.4002 19.6881 17.2062 18.7135 17.5575 17.8663L17.1881 17.7131ZM17.7662 20.6184L17.483 20.9009C18.3593 21.7791 19.6785 22.0413 20.8247 21.566L20.6715 21.1965L20.5182 20.827C19.671 21.1783 18.6965 20.9844 18.0493 20.3358L17.7662 20.6184ZM20.6715 21.1965L20.8242 21.5662C21.9705 21.0925 22.7178 19.9734 22.7179 18.7336L22.3179 18.7336L21.9179 18.7336C21.9179 19.65 21.3653 20.477 20.5187 20.8268L20.6715 21.1965ZM22.3179 18.7336H22.7179C22.7179 17.9208 22.3945 17.14 21.8195 16.565L21.5367 16.8478L21.2538 17.1307C21.6789 17.5557 21.9179 18.133 21.9179 18.7336H22.3179ZM21.5367 16.8478L21.8195 16.565C21.2445 15.99 20.4637 15.6666 19.6509 15.6666V16.0666V16.4666C20.2515 16.4666 20.8289 16.7057 21.2538 17.1307L21.5367 16.8478ZM32.0679 4.31659V3.91659C30.2878 3.91659 28.6833 4.98885 28.003 6.63342L28.3726 6.78632L28.7423 6.93923C29.2988 5.59392 30.6114 4.71659 32.0679 4.71659V4.31659ZM28.3726 6.78632L28.0032 6.63295C27.321 8.27624 27.6995 10.17 28.957 11.4276L29.2398 11.1447L29.5227 10.8619C28.4935 9.83265 28.1843 8.28313 28.7421 6.9397L28.3726 6.78632ZM29.2398 11.1447L28.957 11.4276C30.2145 12.6851 32.1082 13.0636 33.7516 12.3813L33.5982 12.0119L33.4448 11.6425C32.1013 12.2003 30.5518 11.891 29.5227 10.8619L29.2398 11.1447ZM33.5982 12.0119L33.7511 12.3815C35.3957 11.7012 36.4679 10.0967 36.4679 8.31659H36.0679H35.6679C35.6679 9.77314 34.7906 11.0858 33.4453 11.6423L33.5982 12.0119ZM36.0679 8.31659L36.4679 8.31629C36.4661 5.88727 34.4973 3.91848 32.0683 3.91659L32.0679 4.31659L32.0676 4.71659C34.0553 4.71813 35.6664 6.32924 35.6679 8.3169L36.0679 8.31659ZM7.31697 1.73359V1.33359C5.53684 1.33359 3.93232 2.40578 3.25203 4.05042L3.62165 4.20331L3.99128 4.35621C4.54777 3.01086 5.86037 2.13359 7.31697 2.13359V1.73359ZM3.62165 4.20331L3.25223 4.04994C2.56998 5.69323 2.94849 7.58697 4.20599 8.84455L4.48884 8.56171L4.77169 8.27888C3.74252 7.24965 3.43332 5.70012 3.99108 4.35669L3.62165 4.20331ZM4.48884 8.56171L4.20601 8.84456C5.46354 10.102 7.35727 10.4806 9.00062 9.79833L8.84724 9.4289L8.69386 9.05947C7.35039 9.61725 5.80087 9.30799 4.77167 8.27886L4.48884 8.56171ZM8.84724 9.4289L9.00013 9.79853C10.6447 9.11826 11.7169 7.51364 11.717 5.7336L11.317 5.73359L10.917 5.73358C10.9169 7.19012 10.0396 8.50281 8.69435 9.05927L8.84724 9.4289ZM11.317 5.73359L11.717 5.73328C11.7151 3.30424 9.74629 1.33547 7.31728 1.33359L7.31697 1.73359L7.31666 2.13359C9.30434 2.13513 10.9155 3.74622 10.917 5.73389L11.317 5.73359Z" fill="#00ADB5"/>
</svg>
