<svg width="13" height="15" viewBox="0 0 13 15" fill="none" xmlns="http://www.w3.org/2000/svg">
<path d="M3.61203 14.4929L3.87201 12.8416L3.2929 12.8282H0.527588L2.44934 0.642986C2.4553 0.606201 2.47469 0.571902 2.50302 0.547544C2.53136 0.523187 2.56765 0.509766 2.60542 0.509766H7.26813C8.81607 0.509766 9.88431 0.83188 10.442 1.46766C10.7035 1.76591 10.87 2.07759 10.9506 2.42058C11.0351 2.78047 11.0366 3.21046 10.954 3.73489L10.9481 3.77316V4.10919L11.2096 4.25733C11.4298 4.37414 11.6047 4.50786 11.739 4.66096C11.9626 4.91597 12.1073 5.24007 12.1684 5.62432C12.2316 6.01951 12.2107 6.48976 12.1073 7.02214C11.988 7.63456 11.7951 8.16793 11.5347 8.60438C11.2951 9.00652 10.9898 9.34007 10.6275 9.59856C10.2815 9.84412 9.87039 10.0305 9.40561 10.1498C8.95525 10.2671 8.44176 10.3263 7.87855 10.3263H7.51568C7.2562 10.3263 7.00417 10.4198 6.80633 10.5873C6.60799 10.7583 6.47676 10.9919 6.4365 11.2474L6.40916 11.396L5.94985 14.3065L5.92897 14.4134C5.9235 14.4472 5.91406 14.4641 5.90014 14.4755C5.88771 14.4859 5.86981 14.4929 5.85242 14.4929H3.61203Z" fill="#253B80"/>
<path d="M11.4569 3.81042C11.443 3.8994 11.4271 3.99037 11.4092 4.08382C10.7943 7.24084 8.69064 8.33146 6.00387 8.33146H4.63587C4.3073 8.33146 4.03042 8.57006 3.97922 8.89416L3.27882 13.3362L3.08048 14.5953C3.04717 14.808 3.21121 14.9999 3.42596 14.9999H5.85225C6.13957 14.9999 6.38364 14.7911 6.42888 14.5078L6.45274 14.3845L6.90956 11.4855L6.93889 11.3264C6.98363 11.0421 7.2282 10.8333 7.51552 10.8333H7.87839C10.2291 10.8333 12.0694 9.8789 12.6072 7.11707C12.8319 5.96332 12.7156 4.99996 12.1211 4.32243C11.9411 4.11812 11.7179 3.94862 11.4569 3.81042Z" fill="#179BD7"/>
<path d="M10.8137 3.55274C10.7198 3.5254 10.6229 3.50054 10.5234 3.47818C10.4235 3.4563 10.3211 3.43692 10.2157 3.42002C9.8469 3.36037 9.44276 3.33203 9.0098 3.33203H5.35519C5.26522 3.33203 5.17972 3.35241 5.10317 3.3892C4.93465 3.47022 4.80939 3.62979 4.77907 3.82514L4.00162 8.74932L3.97925 8.89298C4.03045 8.56887 4.30733 8.33027 4.6359 8.33027H6.0039C8.69067 8.33027 10.7944 7.23916 11.4093 4.08264C11.4276 3.98918 11.4431 3.89822 11.457 3.80924C11.3014 3.72672 11.1329 3.65613 10.9514 3.59599C10.9067 3.58107 10.8605 3.56666 10.8137 3.55274Z" fill="#222D65"/>
<path d="M4.77902 3.8271C4.80934 3.63174 4.93461 3.47217 5.10312 3.39164C5.18017 3.35486 5.26517 3.33448 5.35514 3.33448H9.00975C9.44271 3.33448 9.84685 3.36281 10.2157 3.42246C10.3211 3.43937 10.4235 3.45875 10.5234 3.48062C10.6228 3.50299 10.7197 3.52785 10.8137 3.55519C10.8604 3.56911 10.9066 3.58352 10.9519 3.59794C11.1333 3.65808 11.3018 3.72917 11.4574 3.81119C11.6403 2.64452 11.4559 1.85017 10.8251 1.13088C10.1297 0.339015 8.87454 0 7.26844 0H2.60574C2.27766 0 1.9978 0.238603 1.9471 0.563203L0.00496534 12.8736C-0.0333106 13.1172 0.154589 13.3369 0.400152 13.3369H3.2788L4.00157 8.75127L4.77902 3.8271Z" fill="#253B80"/>
</svg>
