<svg width="76" height="20" viewBox="0 0 76 20" fill="none" xmlns="http://www.w3.org/2000/svg">
<path d="M24.1239 4.00391C23.9686 4.00391 23.8367 4.11662 23.8124 4.2701L22.0152 15.6675C22.0087 15.7091 22.0113 15.7516 22.0228 15.7922C22.0342 15.8327 22.0544 15.8703 22.0818 15.9023C22.1092 15.9344 22.1432 15.9601 22.1814 15.9777C22.2197 15.9954 22.2614 16.0045 22.3035 16.0045H24.4348C24.5899 16.0045 24.722 15.8916 24.7462 15.7383L25.2742 12.3914C25.2982 12.2381 25.4303 12.1252 25.5856 12.1252H27.5234C29.7875 12.1252 31.7094 10.4732 32.0605 8.23473C32.4144 5.97731 30.6509 4.00881 28.1513 4.00391H24.1239ZM26.1957 6.54824H27.7461C29.0225 6.54824 29.4382 7.30138 29.3068 8.13427C29.1753 8.96894 28.5298 9.58375 27.295 9.58375H25.717L26.1957 6.54824ZM36.3953 7.32298C35.8571 7.32499 35.2379 7.43525 34.5427 7.72484C32.9479 8.38955 32.1821 9.76329 31.8569 10.7648C31.8569 10.7648 30.8217 13.8204 33.1604 15.4991C33.1604 15.4991 35.3294 17.1152 37.7711 15.3995L37.729 15.6675C37.7224 15.7091 37.725 15.7516 37.7365 15.7921C37.7479 15.8326 37.768 15.8702 37.7953 15.9022C37.8227 15.9342 37.8566 15.9599 37.8948 15.9776C37.9331 15.9952 37.9747 16.0044 38.0168 16.0045H40.0401C40.1953 16.0045 40.3272 15.8916 40.3515 15.7383L41.5822 7.93334C41.5888 7.89171 41.5863 7.84915 41.5749 7.80858C41.5635 7.76801 41.5434 7.73039 41.516 7.69832C41.4887 7.66625 41.4547 7.64049 41.4165 7.6228C41.3782 7.60511 41.3366 7.59592 41.2944 7.59586H39.2711C39.1159 7.59586 38.9838 7.7088 38.9597 7.86206L38.8935 8.28218C38.8935 8.28218 38.0101 7.31697 36.3953 7.32298ZM36.4615 9.78824C36.6938 9.78824 36.9063 9.82031 37.097 9.88157C37.97 10.1618 38.465 11.0005 38.3217 11.9096C38.1451 13.0289 37.2271 13.8531 36.0498 13.8531C35.8177 13.8531 35.6052 13.8213 35.4143 13.76C34.5415 13.4798 34.0435 12.6411 34.1867 11.732C34.3633 10.6127 35.2842 9.78824 36.4615 9.78824Z" fill="#003087"/>
<path d="M53.2606 4.00391C53.1053 4.00391 52.9734 4.11662 52.9492 4.2701L51.152 15.6675C51.1454 15.7091 51.148 15.7516 51.1595 15.7922C51.171 15.8327 51.1911 15.8703 51.2185 15.9023C51.2459 15.9344 51.2799 15.9601 51.3182 15.9777C51.3564 15.9954 51.3981 16.0045 51.4402 16.0045H53.5715C53.7266 16.0045 53.8587 15.8916 53.883 15.7383L54.4109 12.3914C54.435 12.2381 54.5671 12.1252 54.7223 12.1252H56.6601C58.9242 12.1252 60.8459 10.4732 61.1967 8.23473C61.5509 5.97731 59.7876 4.00881 57.288 4.00391H53.2606ZM55.3324 6.54824H56.8828C58.1592 6.54824 58.5749 7.30138 58.4435 8.13427C58.312 8.96894 57.6667 9.58375 56.4318 9.58375H54.8537L55.3324 6.54824ZM65.5318 7.32298C64.9936 7.32499 64.3744 7.43525 63.6791 7.72484C62.0844 8.38955 61.3186 9.76329 60.9934 10.7648C60.9934 10.7648 59.9587 13.8204 62.2974 15.4991C62.2974 15.4991 64.4659 17.1152 66.9078 15.3995L66.8657 15.6675C66.8592 15.7091 66.8617 15.7516 66.8732 15.7922C66.8847 15.8327 66.9048 15.8703 66.9322 15.9023C66.9596 15.9344 66.9936 15.9601 67.0319 15.9777C67.0702 15.9954 67.1118 16.0045 67.1539 16.0045H69.177C69.3323 16.0045 69.4642 15.8916 69.4884 15.7383L70.7196 7.93334C70.7262 7.89167 70.7237 7.84907 70.7123 7.80847C70.7008 7.76787 70.6807 7.73023 70.6533 7.69815C70.6259 7.66607 70.5919 7.64032 70.5535 7.62266C70.5152 7.605 70.4735 7.59586 70.4314 7.59586H68.4081C68.2528 7.59586 68.1207 7.7088 68.0966 7.86206L68.0305 8.28218C68.0305 8.28218 67.1466 7.31697 65.5318 7.32298ZM65.598 9.78824C65.8303 9.78824 66.0428 9.82031 66.2335 9.88157C67.1065 10.1618 67.6015 11.0005 67.4582 11.9096C67.2816 13.0289 66.3636 13.8531 65.1863 13.8531C64.9542 13.8531 64.7417 13.8213 64.5508 13.76C63.678 13.4798 63.18 12.6411 63.3232 11.732C63.4998 10.6127 64.4207 9.78824 65.598 9.78824Z" fill="#0070E0"/>
<path d="M42.5416 7.59397C42.3812 7.59397 42.2672 7.75057 42.3162 7.90316L44.5344 14.7866L42.5287 18.0304C42.4313 18.1878 42.5445 18.3912 42.7296 18.3912H45.1002C45.168 18.3912 45.2346 18.3736 45.2937 18.3403C45.3527 18.307 45.4021 18.259 45.4372 18.201L51.6323 7.95261C51.7274 7.79512 51.6138 7.59375 51.4298 7.59375H49.0595C48.991 7.59381 48.9237 7.61169 48.8643 7.64563C48.8049 7.67957 48.7553 7.7284 48.7204 7.78733L46.2819 11.9043L45.0441 7.81784C45.0037 7.68486 44.881 7.59375 44.7422 7.59375L42.5416 7.59397Z" fill="#003087"/>
<path d="M73.0189 4.00391C72.8639 4.00391 72.7318 4.11684 72.7075 4.2701L70.9098 15.667C70.9032 15.7087 70.9058 15.7513 70.9172 15.7919C70.9287 15.8325 70.9488 15.8701 70.9762 15.9022C71.0036 15.9343 71.0376 15.96 71.0759 15.9777C71.1142 15.9954 71.1559 16.0045 71.1981 16.0045H73.3294C73.4845 16.0045 73.6166 15.8916 73.6408 15.7383L75.438 4.34094C75.4446 4.29934 75.442 4.25683 75.4306 4.21631C75.4191 4.1758 75.399 4.13824 75.3717 4.10622C75.3443 4.0742 75.3104 4.04848 75.2722 4.03082C75.2339 4.01316 75.1924 4.00398 75.1502 4.00391H73.0189Z" fill="#0070E0"/>
<path d="M6.35525 4.00391C6.21796 4.00402 6.08521 4.05309 5.98085 4.1423C5.87649 4.23152 5.80735 4.35502 5.78588 4.49063L4.83984 10.4908C4.88395 10.2106 5.12541 10.0041 5.4092 10.0041H8.18142C10.9714 10.0041 13.3389 7.96876 13.7715 5.21058C13.8037 5.00466 13.8219 4.7968 13.8261 4.58842C13.117 4.21664 12.2842 4.00391 11.3715 4.00391H6.35525Z" fill="#001C64"/>
<path d="M13.8248 4.58398C13.8206 4.79236 13.8024 5.00022 13.7702 5.20614C13.3376 7.96432 10.9699 9.99965 8.18009 9.99965H5.40788C5.12431 9.99965 4.88262 10.2059 4.83852 10.4864L3.96864 16.0001L3.42378 19.459C3.41315 19.5259 3.41713 19.5942 3.43548 19.6593C3.45382 19.7245 3.48608 19.7848 3.53002 19.8363C3.57396 19.8878 3.62855 19.9291 3.69001 19.9574C3.75147 19.9857 3.81834 20.0004 3.88601 20.0003H6.89501C7.0323 20.0002 7.16505 19.9511 7.26941 19.8619C7.37377 19.7727 7.4429 19.6492 7.46437 19.5136L8.25693 14.4866C8.27841 14.351 8.34761 14.2274 8.45206 14.1382C8.55652 14.049 8.68938 13.9999 8.82676 13.9999H10.5983C13.3884 13.9999 15.7558 11.9646 16.1884 9.20642C16.4956 7.24883 15.5097 5.46744 13.8248 4.58398Z" fill="#0070E0"/>
<path d="M2.9364 0C2.65283 0 2.41115 0.206273 2.36704 0.486279L0.00581134 15.4591C-0.0389628 15.7434 0.180681 16.0004 0.468484 16.0004H3.97L4.83942 10.4867L5.78546 4.48655C5.80693 4.35094 5.87607 4.22744 5.98043 4.13822C6.08479 4.04901 6.21754 3.99994 6.35484 3.99982H11.3711C12.284 3.99982 13.1166 4.21278 13.8257 4.58434C13.8742 2.0732 11.8021 0 8.95329 0H2.9364Z" fill="#003087"/>
</svg>
