<svg width="32" height="15" viewBox="0 0 32 15" fill="none" xmlns="http://www.w3.org/2000/svg">
<g clip-path="url(#clip0_434_852)">
<path d="M0 15H10.7788V7.40012H0V15ZM3.81297 10.6051L4.82918 11.6213L7.18298 9.26752L7.93862 10.0232L4.82918 13.1326L3.05733 11.3607L3.81297 10.6051ZM3.17892 4.03011C3.17892 2.81413 4.16908 1.82397 5.39375 1.82397C6.60973 1.82397 7.59988 2.81413 7.59988 4.03011V6.31442H9.42386V4.03011C9.41517 1.8066 7.60857 0 5.39375 0C3.17024 0 1.36364 1.8066 1.36364 4.03011V6.31442H3.18761V4.03011H3.17892ZM19.612 6.74001C19.612 5.64563 18.9693 5.02027 17.9531 4.6381L17.0151 4.23856C16.2681 3.96931 15.747 3.78691 15.747 3.32658C15.747 2.87493 16.1378 2.62305 16.7197 2.62305C17.4754 2.62305 17.9618 2.84887 18.5003 3.23972L19.3862 2.13665C18.6827 1.47655 17.7533 1.12044 16.8153 1.12044C15.1477 1.12044 13.9838 2.13665 13.9838 3.42212C13.9838 4.55125 14.7655 5.21135 15.634 5.53272L16.6329 5.95831C17.3712 6.2623 17.8315 6.40996 17.8315 6.95715C17.8315 7.348 17.4841 7.63463 16.7458 7.63463C15.9988 7.63463 15.2779 7.30457 14.696 6.82687L13.6885 8.02548C14.5136 8.76375 15.5819 9.13723 16.6242 9.13723C18.535 9.13723 19.612 8.01679 19.612 6.74001ZM23.8767 4.6381L22.9386 4.23856C22.1917 3.96931 21.6705 3.78691 21.6705 3.32658C21.6705 2.87493 22.0614 2.62305 22.6433 2.62305C23.399 2.62305 23.8854 2.84887 24.4239 3.23972L25.3098 2.13665C24.6063 1.47655 23.6769 1.12044 22.7389 1.12044C21.0712 1.12044 19.9074 2.13665 19.9074 3.42212C19.9074 4.55125 20.6891 5.21135 21.5576 5.53272L22.5565 5.95831C23.2947 6.2623 23.7551 6.40996 23.7551 6.95715C23.7551 7.348 23.4076 7.63463 22.6694 7.63463C21.9224 7.63463 21.2015 7.30457 20.6196 6.82687L19.612 8.02548C20.4372 8.76375 21.5055 9.13723 22.5478 9.13723C24.4673 9.13723 25.5443 8.02548 25.5443 6.74001C25.5356 5.64563 24.9016 5.02027 23.8767 4.6381Z" fill="#B1B4C7"/>
<path d="M27.9415 7.52207V1.25977H26.2043V8.98993H31.381V7.52207H27.9415Z" fill="#B1B4C7"/>
<path d="M15.3301 11.7336L14.8611 11.5338C14.5744 11.4122 14.2618 11.2993 14.2618 10.9779C14.2618 10.6739 14.5223 10.4915 14.9132 10.4915C15.2606 10.4915 15.5125 10.6131 15.7383 10.8042L15.9641 10.5263C15.7209 10.2831 15.3561 10.1094 14.9306 10.1094C14.2965 10.1094 13.8362 10.4829 13.8362 10.9953C13.8362 11.4817 14.227 11.7249 14.5571 11.8552L15.0348 12.0636C15.3735 12.2113 15.6341 12.3155 15.6341 12.6716C15.6341 12.9843 15.3648 13.2014 14.9045 13.2014C14.5223 13.2014 14.1749 13.0364 13.923 12.7845L13.6711 13.0798C13.9751 13.3838 14.392 13.5749 14.8871 13.5749C15.6254 13.5749 16.0684 13.1493 16.0684 12.6195C16.0684 12.1244 15.7383 11.8986 15.3301 11.7336Z" fill="#B1B4C7"/>
<path d="M17.3973 11.9418H18.787V11.577H17.3973V10.526H19.0388V10.1699H16.9717V13.5139H19.091V13.1491H17.3973V11.9418Z" fill="#B1B4C7"/>
<path d="M21.271 13.2021C20.6283 13.2021 20.2114 12.6723 20.2114 11.8297C20.2114 10.9959 20.6283 10.4748 21.271 10.4748C21.549 10.4748 21.7748 10.5964 21.9398 10.7788L22.183 10.5095C21.9919 10.2924 21.6706 10.1013 21.271 10.1013C20.4025 10.1013 19.7684 10.7614 19.7684 11.8384C19.7684 12.9328 20.4025 13.5756 21.2276 13.5756C21.6706 13.5756 22.0006 13.3932 22.2612 13.0892L22.018 12.8286C21.8182 13.0718 21.5837 13.2021 21.271 13.2021ZM24.7453 12.264C24.7453 12.9589 24.4413 13.2108 24.0331 13.2108C23.6335 13.2108 23.3295 12.9589 23.3295 12.264V10.1708H22.9039V12.2553C22.9039 13.2108 23.3816 13.5842 24.0331 13.5842C24.6845 13.5842 25.1535 13.2194 25.1535 12.2553V10.1708H24.7366V12.264H24.7453ZM28.2803 11.1088C28.2803 10.414 27.7939 10.1708 27.1164 10.1708H26.0742V13.5148H26.4998V12.099H27.0991L27.9068 13.5148H28.3932L27.542 12.0556C27.9763 11.9427 28.2803 11.63 28.2803 11.1088ZM27.0469 11.7516H26.4911V10.5095H27.0469C27.5681 10.5095 27.8547 10.6659 27.8547 11.1088C27.8547 11.5431 27.5681 11.7516 27.0469 11.7516Z" fill="#B1B4C7"/>
<path d="M29.6264 11.9418H31.0161V11.577H29.6264V10.526H31.268V10.1699H29.1921V13.5139H31.3201V13.1491H29.6264V11.9418Z" fill="#B1B4C7"/>
</g>
<defs>
<clipPath id="clip0_434_852">
<rect width="31.3202" height="15" fill="white"/>
</clipPath>
</defs>
</svg>
