<svg width="22" height="21" viewBox="0 0 22 21" fill="none" xmlns="http://www.w3.org/2000/svg">
<path d="M10.3751 0.345483C10.5247 -0.115173 11.1764 -0.115172 11.3261 0.345483L13.5448 7.17375C13.6117 7.37976 13.8037 7.51925 14.0203 7.51925H21.2C21.6843 7.51925 21.8857 8.13905 21.4938 8.42375L15.6854 12.6439C15.5101 12.7712 15.4368 12.9969 15.5037 13.2029L17.7224 20.0311C17.8721 20.4918 17.3448 20.8749 16.953 20.5902L11.1445 16.3701C10.9692 16.2427 10.7319 16.2427 10.5567 16.3701L4.74822 20.5902C4.35636 20.8749 3.82912 20.4918 3.9788 20.0311L6.19744 13.2029C6.26438 12.9969 6.19105 12.7712 6.0158 12.6439L0.207328 8.42375C-0.184529 8.13905 0.0168594 7.51925 0.501221 7.51925H7.68089C7.8975 7.51925 8.08948 7.37976 8.15642 7.17375L10.3751 0.345483Z" fill="#00ADB5"/>
</svg>
