<svg width="33" height="14" viewBox="0 0 33 14" fill="none" xmlns="http://www.w3.org/2000/svg">
<path fill-rule="evenodd" clip-rule="evenodd" d="M17.624 1.83115L15.3543 2.3183V0.478085L17.624 0V1.83115ZM22.3441 2.85051C21.4578 2.85051 20.8882 3.2654 20.5717 3.55411L20.4541 2.99483H18.4647V13.5127L20.7254 13.0346L20.7345 10.4818C21.06 10.7163 21.5392 11.0501 22.335 11.0501C23.9536 11.0501 25.4276 9.75115 25.4276 6.89164C25.4185 4.2757 23.9265 2.85051 22.3441 2.85051ZM21.8014 9.06555C21.268 9.06555 20.9514 8.87617 20.7344 8.6416L20.7254 5.295C20.9605 5.03343 21.286 4.85304 21.8014 4.85304C22.6243 4.85304 23.194 5.77309 23.194 6.95477C23.194 8.16351 22.6333 9.06555 21.8014 9.06555ZM32.5532 6.98183C32.5532 4.6726 31.4319 2.85051 29.2888 2.85051C27.1367 2.85051 25.8346 4.6726 25.8346 6.96383C25.8346 9.67896 27.3718 11.0501 29.5782 11.0501C30.6543 11.0501 31.4681 10.8065 32.083 10.4637V8.65966C31.4681 8.96636 30.7628 9.15581 29.8676 9.15581C28.9904 9.15581 28.2128 8.84911 28.1133 7.78468H32.5351C32.5351 7.73502 32.5384 7.62223 32.5421 7.49221C32.5472 7.3154 32.5532 7.10655 32.5532 6.98183ZM28.0861 6.12492C28.0861 5.10562 28.7101 4.68166 29.2797 4.68166C29.8314 4.68166 30.4191 5.10562 30.4191 6.12492H28.0861ZM15.3541 3.00383H17.6238V10.8968H15.3541V3.00383ZM12.7772 3.00383L12.9219 3.67136C13.4554 2.69713 14.5134 2.89557 14.8027 3.00383V5.07855C14.5224 4.9793 13.6181 4.85304 13.0847 5.54764V10.8968H10.824V3.00383H12.7772ZM8.40045 1.04636L6.19404 1.51545L6.18504 8.74085C6.18504 10.0759 7.18877 11.0591 8.52702 11.0591C9.26853 11.0591 9.81108 10.9238 10.1095 10.7614V8.9303C9.82015 9.04755 8.39138 9.46251 8.39138 8.12745V4.92517H10.1095V3.00383H8.39138L8.40045 1.04636ZM3.05643 4.80798C2.57713 4.80798 2.28779 4.94323 2.28779 5.29506C2.28779 5.67919 2.78579 5.84815 3.4036 6.05777C4.41077 6.39951 5.73645 6.84925 5.74206 8.51534C5.74206 10.13 4.44894 11.0591 2.56813 11.0591C1.79043 11.0591 0.940404 10.9058 0.0994467 10.545V8.39809C0.859021 8.81304 1.81755 9.11974 2.56813 9.11974C3.07449 9.11974 3.43621 8.98443 3.43621 8.56947C3.43621 8.14404 2.89634 7.94955 2.24464 7.71479C1.25208 7.35721 0 6.90613 0 5.40332C0 3.80668 1.22074 2.85051 3.05643 2.85051C3.80694 2.85051 4.54845 2.96777 5.29896 3.26547V5.38526C4.6117 5.01543 3.74362 4.80798 3.05643 4.80798Z" fill="#6461FC"/>
</svg>
