<svg width="50" height="55" viewBox="0 0 50 55" fill="none" xmlns="http://www.w3.org/2000/svg">
<path fill-rule="evenodd" clip-rule="evenodd" d="M8.31189 9.17096L7.20437 6.4642L6.12074 9.11603C6.03242 9.3953 5.78419 9.60534 5.47388 9.62683L2.56426 9.84165L4.79361 11.7273C4.99649 11.8991 5.09913 12.1784 5.03229 12.4553L4.33533 15.2957L6.80818 13.7633C7.03732 13.6153 7.34046 13.6034 7.58629 13.7561L10.0734 15.2957L9.386 12.4911C9.30485 12.2214 9.386 11.9182 9.61276 11.7249L11.8421 9.83925L8.93248 9.62443V9.62204C8.66515 9.60295 8.41691 9.43587 8.30952 9.17092L8.31189 9.17096ZM7.87986 4.26352L9.48863 8.19952L13.7325 8.5122C14.1359 8.54085 14.439 8.88934 14.4104 9.29269C14.3961 9.50751 14.2887 9.69369 14.1312 9.81781L10.9017 12.5485L11.9161 16.6826C12.0116 17.074 11.7705 17.4679 11.3791 17.5633C11.1738 17.6135 10.9685 17.5705 10.8062 17.4631L7.20439 15.2337L3.58583 17.4751C3.24211 17.6875 2.79336 17.5801 2.58334 17.2388C2.47593 17.0669 2.44968 16.8664 2.49503 16.685L3.50949 12.5485L0.258534 9.79879C-0.0493785 9.53862 -0.0875691 9.07794 0.172609 8.77003C0.306275 8.6125 0.490066 8.52657 0.678629 8.51225L4.92254 8.19718L6.5313 4.26118C6.68167 3.88882 7.10893 3.70981 7.4813 3.86018C7.66986 3.93656 7.81069 4.08455 7.8823 4.26118L7.87986 4.26352ZM43.9029 9.17096L42.7978 6.4642L41.7142 9.11603C41.6258 9.3953 41.3776 9.60534 41.0673 9.62683L38.1577 9.84165L40.387 11.7273C40.5899 11.8991 40.6926 12.1784 40.6257 12.4553L39.9288 15.2957L42.4016 13.7633C42.6307 13.6153 42.9339 13.6034 43.1797 13.7561L45.6669 15.2957L44.9794 12.4911C44.8983 12.2214 44.9794 11.9182 45.2062 11.7249L47.4355 9.83925L44.5259 9.62443V9.62204C44.2586 9.60295 44.0103 9.4359 43.9029 9.17096ZM43.4709 4.26352L45.0797 8.19952L49.3236 8.5122C49.727 8.54085 50.0301 8.88934 50.0015 9.29269C49.9872 9.50751 49.8797 9.69369 49.7222 9.81781L46.4927 12.5485L47.5072 16.6826C47.6026 17.074 47.3616 17.4679 46.9701 17.5633C46.7648 17.6135 46.5596 17.5705 46.3972 17.4631L42.7954 15.2337L39.1745 17.4751C38.8308 17.6875 38.382 17.5801 38.172 17.2388C38.0646 17.0669 38.0383 16.8664 38.0837 16.685L39.0981 12.5485L35.8472 9.79879C35.5393 9.53862 35.5011 9.07794 35.7613 8.77003C35.8949 8.6125 36.0787 8.52657 36.2673 8.51225L40.5112 8.19718L42.12 4.26118C42.2703 3.88882 42.6976 3.70981 43.07 3.86018C43.2585 3.93656 43.3993 4.08455 43.471 4.26118L43.4709 4.26352ZM35.5487 43.7164C33.0973 41.2651 29.7986 39.6634 26.13 39.389C25.76 39.4367 25.3829 39.4629 24.9986 39.4629C24.6143 39.4629 24.2372 39.4391 23.8672 39.389C20.1985 39.6635 16.9 41.2651 14.4485 43.7164C11.9088 46.256 10.281 49.7051 10.0972 53.5335H39.8979C39.7117 49.7049 38.0838 46.2559 35.5466 43.7164H35.5487ZM35.4747 20.9622L25.2995 17.4057L15.1244 20.9622L25.2995 24.5187L35.4747 20.9622ZM17.5679 23.3634L25.0582 25.9819C25.2085 26.0344 25.3756 26.0392 25.5379 25.9819C27.8198 25.1847 30.1017 24.3779 32.3859 23.5759V27.6862C32.3859 28.1158 31.6675 28.5765 30.5051 28.9775C29.1039 29.4597 27.1491 29.7556 24.9794 29.7556C22.8073 29.7556 20.8572 29.4573 19.4609 28.9727C18.2937 28.5694 17.5704 28.1015 17.5704 27.6671H17.568L17.5679 23.3634ZM32.1353 29.8656C31.794 30.047 31.4073 30.2141 30.9801 30.3597C29.4358 30.892 27.3114 31.2189 24.9794 31.2189C22.6474 31.2189 20.535 30.8872 18.9859 30.3501C18.5729 30.2069 18.1982 30.047 17.8641 29.8703C17.8569 29.9157 17.8521 29.961 17.8473 30.0064C17.8187 30.2594 17.8044 30.5267 17.8044 30.806C17.8044 32.7919 18.6088 34.5916 19.912 35.8925C20.9742 36.9547 22.3657 37.685 23.9196 37.919C24.2777 37.8951 24.6357 37.8832 24.9985 37.8832C25.3613 37.8832 25.7217 37.8951 26.0774 37.919C27.6312 37.685 29.0228 36.9547 30.085 35.8925C31.3858 34.5916 32.1926 32.7919 32.1926 30.806C32.1926 30.522 32.1783 30.2522 32.1496 29.9921C32.1449 29.9491 32.1401 29.9062 32.1353 29.8656ZM37.0213 26.7006V21.9626C37.3221 21.8575 37.6252 21.7549 37.9283 21.6523C38.1312 21.5807 38.3007 21.4207 38.3771 21.2035C38.5108 20.824 38.3079 20.4063 37.9283 20.275L25.5406 15.9452C25.3902 15.8927 25.2231 15.8879 25.0608 15.9452C20.9339 17.3869 16.8068 18.8596 12.6731 20.275C12.4702 20.3466 12.3007 20.5066 12.2243 20.7238C12.0906 21.1033 12.2935 21.521 12.6731 21.6523L16.1126 22.8553V27.6673H16.1102C16.1102 28.0969 16.2701 28.498 16.5685 28.8679C16.5637 28.8822 16.5613 28.8989 16.5565 28.9132C16.4873 29.2283 16.4348 29.541 16.399 29.8537C16.3632 30.1759 16.3441 30.4934 16.3441 30.8061C16.3441 33.1954 17.3132 35.3603 18.879 36.9288C19.4638 37.5136 20.1297 38.0148 20.8625 38.4134C18.0006 39.1582 15.4442 40.6571 13.4175 42.6836C10.4529 45.6482 8.6198 49.7443 8.6198 54.2672C8.6198 54.6706 8.94681 55 9.35257 55H40.6547C41.0581 55 41.3875 54.673 41.3875 54.2672C41.3875 49.7441 39.5543 45.6484 36.5898 42.6836C34.5633 40.6571 32.0045 39.1582 29.1448 38.4134C29.8751 38.0148 30.5435 37.5135 31.1283 36.9288C32.6941 35.363 33.6631 33.198 33.6631 30.8061C33.6631 30.4838 33.644 30.1592 33.6082 29.8322C33.5724 29.5076 33.5175 29.1853 33.4435 28.8703C33.4412 28.8607 33.4388 28.8488 33.4364 28.8392C33.7109 28.4836 33.8565 28.0969 33.8565 27.684V23.0845V23.0606C34.4246 22.8625 34.995 22.6644 35.5631 22.4663V26.6982C35.5631 27.1016 35.8901 27.431 36.2959 27.431C36.6993 27.431 37.0287 27.104 37.0287 26.6982L37.0213 26.7006ZM26.1062 5.36401L25.001 2.65726L23.9174 5.30908C23.8291 5.58835 23.5808 5.7984 23.2705 5.81988L20.3609 6.0347L22.5903 7.92033C22.7932 8.09219 22.8958 8.37145 22.829 8.64833L22.132 11.4887L24.6048 9.95634C24.834 9.80835 25.1371 9.79642 25.3829 9.94918L27.8701 11.4887L27.1827 8.68413C27.1015 8.41441 27.1827 8.11127 27.4094 7.91794L29.6388 6.03231L26.7291 5.81749V5.8151C26.4618 5.796 26.2136 5.62896 26.1062 5.36401ZM25.6741 0.456571L27.2829 4.39257L31.5268 4.70526C31.9302 4.7339 32.2333 5.08239 32.2047 5.48575C32.1904 5.70057 32.083 5.88675 31.9254 6.01087L28.6959 8.74152L29.7104 12.8756C29.8059 13.2671 29.5648 13.6609 29.1733 13.7564C28.9681 13.8065 28.7628 13.7635 28.6005 13.6561L24.9987 11.4268L21.3777 13.6681C21.034 13.8805 20.5853 13.7731 20.3752 13.4318C20.2678 13.2599 20.2416 13.0595 20.2869 12.878L21.3014 8.74156L18.0504 5.99185C17.7425 5.73167 17.7043 5.27099 17.9645 4.96309C18.0982 4.80555 18.282 4.71962 18.4705 4.7053L22.7144 4.39023L24.3232 0.454231C24.4736 0.0818709 24.9008 -0.0971415 25.2732 0.0532312C25.4618 0.129612 25.6026 0.277602 25.6742 0.454231L25.6741 0.456571Z" fill="white"/>
</svg>
