<svg width="38" height="35" viewBox="0 0 38 35" fill="none" xmlns="http://www.w3.org/2000/svg">
<path d="M5.14371 20.2371H7.46325C8.16517 20.2371 8.80492 20.5187 9.27033 20.9723L9.27488 20.9768C9.73878 21.4304 10.0253 22.056 10.0253 22.7423V31.7435C10.0253 32.4298 9.73727 33.0554 9.27336 33.5105L9.26882 33.5149C8.80492 33.9685 8.16513 34.2487 7.46325 34.2487H4.36751C4.1022 34.2487 3.86872 34.1183 3.72927 33.9211L0.425858 29.963C0.309124 29.8222 0.253032 29.6532 0.253032 29.4857L0.25 18.3381C0.25 15.941 0.739669 13.599 1.6599 11.4317C2.58467 9.257 3.94454 7.2603 5.68181 5.56131C7.41919 3.86247 9.46127 2.53276 11.6869 1.62862C13.9033 0.727326 16.2987 0.25 18.75 0.25C21.2013 0.25 23.5966 0.728806 25.8131 1.62862C28.0371 2.53288 30.0807 3.86258 31.8182 5.56131C33.5556 7.26014 34.9154 9.25692 35.8401 11.4317C36.7618 13.6004 37.25 15.9412 37.25 18.3381V29.4857C37.25 29.6902 37.1681 29.8741 37.0347 30.0104L33.7328 33.9655C33.5797 34.1493 33.3568 34.2442 33.1325 34.2442L30.0367 34.2472C29.3348 34.2472 28.6951 33.9655 28.2296 33.5119L28.2251 33.5075C27.7612 33.0539 27.4747 32.4283 27.4747 31.7419V22.7408C27.4747 22.0544 27.7627 21.4288 28.2266 20.9738L28.2312 20.9693C28.6951 20.5157 29.3348 20.2355 30.0367 20.2355H32.3563V18.3366C32.3563 16.5696 31.997 14.85 31.3223 13.2609C30.6431 11.6643 29.6411 10.1953 28.36 8.94261L28.3251 8.90555C27.0517 7.67072 25.5629 6.70271 23.9423 6.04451C22.3186 5.38484 20.5601 5.03351 18.7514 5.03351C16.9443 5.03351 15.1842 5.38483 13.5605 6.04451C11.9248 6.71011 10.4224 7.68996 9.14122 8.94111C7.86018 10.1937 6.85961 11.6628 6.17892 13.2609C5.50276 14.85 5.14497 16.5696 5.14497 18.3366V20.2355L5.14371 20.2371ZM22.0231 12.0897C23.2905 12.6901 24.3608 13.6314 25.1112 14.7892C25.8465 15.9262 26.2725 17.2707 26.2725 18.7116C26.2725 20.1392 25.8556 21.4733 25.1339 22.6029C24.476 23.6347 23.5618 24.4945 22.4824 25.0993V33.491C22.4824 33.9105 22.1353 34.25 21.7062 34.25H15.7939C15.3648 34.25 15.0177 33.9105 15.0177 33.491V25.0993C13.9383 24.4945 13.0256 23.6347 12.3677 22.6029C11.646 21.4733 11.2291 20.1407 11.2291 18.7131C11.2291 17.2737 11.6551 15.9277 12.3904 14.7907C13.1499 13.6166 14.2384 12.6664 15.5301 12.0675C15.9167 11.8897 16.379 12.0512 16.561 12.4292C16.611 12.533 16.6352 12.6442 16.6352 12.7524L16.6368 17.7792C16.6368 18.092 16.7671 18.3766 16.9794 18.5826C17.1901 18.7887 17.4812 18.9176 17.8011 18.9176H19.7037C20.0235 18.9176 20.3146 18.7902 20.5254 18.5826L20.5572 18.553C20.7482 18.3499 20.8665 18.0771 20.8665 17.7792V12.7524C20.8665 12.3329 21.2136 11.9934 21.6427 11.9934C21.7821 11.9934 21.911 12.029 22.0247 12.0912L22.0231 12.0897ZM23.8014 15.5941C23.4314 15.0219 22.9615 14.5164 22.4172 14.1014V17.7762C22.4172 18.4818 22.1307 19.1267 21.6668 19.6025L21.6198 19.6529C21.1286 20.1332 20.4479 20.4327 19.7005 20.4327H17.7979C17.049 20.4327 16.3698 20.1347 15.8786 19.6529C15.3875 19.1726 15.0812 18.507 15.0812 17.7762V14.1014C14.5354 14.5164 14.067 15.0219 13.6971 15.5941C13.1164 16.4925 12.7784 17.5628 12.7784 18.7101C12.7784 19.8456 13.1088 20.9056 13.6804 21.7994C14.2656 22.7155 15.107 23.4641 16.106 23.9459C16.3774 24.0645 16.5669 24.3298 16.5669 24.6396V32.7274H20.9268V24.6396C20.9268 24.3595 21.0875 24.0897 21.3635 23.9577C22.3731 23.476 23.2236 22.7244 23.8149 21.7994C24.3864 20.904 24.7169 19.8456 24.7169 18.7086C24.7169 17.5612 24.3788 16.4909 23.7982 15.5926L23.8014 15.5941ZM7.46301 21.7548H4.36727C3.93823 21.7548 3.59107 21.4153 3.59107 20.9958V18.3379C3.59107 16.3752 3.99283 14.4568 4.74781 12.6812C5.5043 10.9023 6.62009 9.26722 8.04517 7.87376C9.47327 6.47734 11.1454 5.3863 12.9663 4.64659C14.781 3.90837 16.7427 3.51551 18.7514 3.51551C20.7601 3.51551 22.7205 3.90837 24.5364 4.64659C26.3405 5.38038 27.9975 6.45806 29.4149 7.83373L29.4573 7.87227C30.8809 9.26425 31.9952 10.9008 32.7547 12.6827C33.5097 14.4572 33.9114 16.3754 33.9114 18.3394V20.9974C33.9114 21.4169 33.5643 21.7564 33.1352 21.7564H30.0395C29.7605 21.7564 29.5089 21.8661 29.327 22.0439C29.1435 22.2233 29.0298 22.4709 29.0298 22.7421V31.7433C29.0298 32.0161 29.142 32.2622 29.3239 32.44C29.5074 32.6194 29.7605 32.7306 30.038 32.7306H32.7683L35.6988 29.2203V18.3395C35.6988 16.1396 35.2516 13.9946 34.4102 12.0125C33.5643 10.0232 32.3166 8.19409 30.7217 6.63437C29.1253 5.07341 27.2546 3.85489 25.22 3.02771C23.1945 2.20497 21.0009 1.76768 18.7511 1.76768C16.4998 1.76768 14.3077 2.20497 12.2822 3.02771C10.2477 3.85489 8.3771 5.07489 6.78044 6.63437C5.18406 8.19534 3.9379 10.0246 3.09196 12.0125C2.25055 13.993 1.80334 16.138 1.80334 18.3395V29.2203L4.73382 32.7306H7.4642C7.74315 32.7306 7.99482 32.6209 8.17672 32.443C8.36016 32.2636 8.47386 32.0161 8.47386 31.7448V22.7436C8.47386 22.4709 8.36168 22.2248 8.17975 22.0469C7.99631 21.8675 7.74314 21.7564 7.46572 21.7564L7.46301 21.7548Z" fill="#00ADB5" stroke="#00ADB5" stroke-width="0.5"/>
</svg>
