<svg width="19" height="18" viewBox="0 0 19 18" fill="none" xmlns="http://www.w3.org/2000/svg">
<path d="M15.6088 5.79266C16.0754 6.76458 16.3475 7.85313 16.3475 9C16.3475 13.0432 13.043 16.3477 8.99987 16.3477C4.95673 16.3477 1.65224 13.0432 1.65224 9C1.65224 4.9568 4.95673 1.65227 8.99987 1.65227C10.6521 1.65227 12.1877 2.19654 13.4123 3.12959C13.8594 2.79914 14.3065 2.44924 14.7924 2.13823C13.2179 0.816415 11.1964 0 8.98043 0C4.04314 0 0 4.0432 0 9C0 13.9568 4.04314 18 8.99987 18C13.9566 18 17.9997 13.9568 17.9997 9C17.9997 7.36717 17.5527 5.85097 16.7946 4.52916C16.4058 4.89849 16.017 5.32613 15.6088 5.79266Z" fill="#00ADB5"/>
<path d="M8.74746 8.82195C8.74746 8.82195 12.3241 3.86515 17.8056 1.24096C18.2916 1.0077 18.7192 1.72692 18.311 2.07681C16.2117 4.00122 13.1988 6.64485 9.62218 13.4483C9.25285 14.1675 8.20319 14.1675 7.83387 13.4483L4.45163 7.11137C4.27668 6.80035 4.37387 6.41158 4.68488 6.19776L5.13196 5.88675C5.38466 5.7118 5.73454 5.75068 5.9678 5.9645L8.74746 8.82195Z" fill="#00ADB5"/>
</svg>
