<svg width="38" height="24" viewBox="0 0 38 24" fill="none" xmlns="http://www.w3.org/2000/svg">
<g clip-path="url(#clip0_269_448)">
<path d="M34.8996 23H3.09961C1.99961 23 1.09961 22.1 1.09961 21V3C1.09961 1.9 1.99961 1 3.09961 1H34.8996C35.9996 1 36.8996 1.9 36.8996 3V21C36.8996 22.1 35.9996 23 34.8996 23Z" fill="white"/>
<path d="M6.50039 14.7004L6.70039 16.6004H14.7004L14.5004 14.4004H10.7004V14.2004L14.1004 11.8004L13.9004 9.90039H5.90039L6.20039 12.0004H9.90039V12.3004L6.50039 14.7004Z" fill="#1A0826"/>
<path d="M14.8 9.90039L15.7 16.6004H23.7L22.9 9.90039H14.8Z" fill="#AA8FFF"/>
<path d="M32.1 12.3004C31.9 10.8004 30.7 9.90039 29.1 9.90039H23.8L24.6 16.6004H27L26.8 15.3004H29.3C31.4 15.2004 32.3 14.0004 32.1 12.3004ZM29.1 13.4004H26.6L26.4 11.8004H28.9C29.5 11.8004 29.8 12.1004 29.8 12.6004C29.9 12.8004 29.8 13.4004 29.1 13.4004Z" fill="#1A0826"/>
<path d="M17.3646 9.0418C17.7807 8.59915 17.6939 7.84167 17.1708 7.34992C16.6477 6.85817 15.8863 6.81837 15.4702 7.26102C15.0541 7.70366 15.1409 8.46114 15.664 8.95289C16.1871 9.44464 16.9485 9.48445 17.3646 9.0418Z" fill="#1A0826"/>
<path d="M34.8996 1C35.9996 1 36.8996 1.9 36.8996 3V21C36.8996 22.1 35.9996 23 34.8996 23H3.09961C1.99961 23 1.09961 22.1 1.09961 21V3C1.09961 1.9 1.99961 1 3.09961 1H34.8996ZM34.8996 0H3.09961C1.39961 0 0.0996094 1.3 0.0996094 3V21C0.0996094 22.7 1.39961 24 3.09961 24H34.8996C36.5996 24 37.8996 22.7 37.8996 21V3C37.8996 1.4 36.5996 0 34.8996 0Z" fill="#373F48" fill-opacity="0.1"/>
</g>
<defs>
<clipPath id="clip0_269_448">
<rect width="38" height="24" fill="white"/>
</clipPath>
</defs>
</svg>
